<?xml version="1.0" encoding="utf-8"?>
<!-- Generator: Adobe Illustrator 22.1.0, SVG Export Plug-In . SVG Version: 6.00 Build 0)  -->
<svg version="1.1" id="Layer_1" xmlns="http://www.w3.org/2000/svg" xmlns:xlink="http://www.w3.org/1999/xlink" x="0px" y="0px"
	 viewBox="0 0 481 238" style="enable-background:new 0 0 481 238;" xml:space="preserve">
<style type="text/css">
	.st0{fill:#473625;}
	.st1{fill:#8A6F55;}
	.st2{fill:#735C46;}
	.st3{fill:#B99372;}
	.st4{fill:#A18163;}
	.st5{fill:#AD642D;}
	.st6{fill:#935523;}
	.st7{fill:#2A4924;}
	.st8{fill:#44683A;}
	.st9{fill:#333334;}
	.st10{fill:#4A4B4C;}
	.st11{fill:#709D5B;}
	.st12{fill:#570024;}
	.st13{fill:#6C0B31;}
	.st14{fill:#96204A;}
	.st15{fill:#5A824B;}
	.st16{fill:#4B6F3F;}
	.st17{fill:#636466;}
	.st18{fill:#1A2F57;}
	.st19{fill:#C8CBE1;}
	.st20{fill:#102348;}
	.st21{fill:#AEB1C6;}
	.st22{fill:#808285;}
	.st23{fill:#58595B;}
	.st24{fill:#ADB1C6;}
	.st25{fill:#977AA2;}
	.st26{fill:#846B8F;}
	.st27{fill:#FFFFFF;}
	.st28{fill:#DCDDDE;}
	.st29{fill:#282829;}
	.st30{fill:#414042;}
	.st31{opacity:0.8;fill:#414042;}
	.st32{fill:#FDE8B3;}
	.st33{fill:#FFECD6;}
	.st34{fill:#B38030;}
	.st35{fill:#966C25;}
	.st36{fill:#7C471A;}
	.st37{fill:#263E6C;}
	.st38{fill:#81173E;}
	.st39{fill:#031638;}
</style>
<g id="j">
	<g id="shelf">
		<path class="st0" d="M118,0v118H0v120h118v0h120V120v-2V0H118z M2,236V120h116v0v116H2z M236,236H120V120h116V236z M120,118
			L120,118V2h116v116H120z"/>
		<polygon class="st1" points="120,236 126,236 126,126 120,120 		"/>
		<polygon class="st1" points="120,118 126,118 126,8 120,2 		"/>
		<polygon class="st1" points="2,236 8,236 8,126 2,120 		"/>
		<polygon class="st2" points="118,120 2,120 8,126 112,126 		"/>
		<polygon class="st2" points="230,126 236,120 120,120 126,126 230,126 		"/>
		<polygon class="st2" points="230,8 236,2 120,2 126,8 230,8 		"/>
		<rect x="8" y="126" class="st3" width="104" height="110"/>
		<polygon class="st4" points="118,236 112,236 112,126 118,120 		"/>
		<polygon class="st3" points="230,126 126,126 126,236 236,236 236,236 230,236 		"/>
		<polygon class="st4" points="236,236 230,236 230,126 236,120 		"/>
		<polygon class="st3" points="230,8 126,8 126,118 236,118 236,118 230,118 		"/>
		<polygon class="st4" points="236,118 230,118 230,8 236,2 		"/>
	</g>
	<g id="plant">
		<g id="pot">
			<rect x="120.9" y="204.5" class="st5" width="31.5" height="5.6"/>
			<polygon class="st6" points="122.6,210.1 150.7,210.1 147.4,236 126,236 			"/>
		</g>
		<g id="succ">
			<path class="st7" d="M145.4,204.5c0,0-6.5-16,1.1-18.9c7.6-2.8,2.5,18.9,2.5,18.9H145.4z"/>
			<path class="st7" d="M140.8,204.5c0,0-10.6-10.4-3.5-13.2c7.2-2.8,7.6,13.2,7.6,13.2H140.8z"/>
			<path class="st8" d="M122.3,182.3c-4.2,1.5-3.2,7.3-1.3,12.5c-0.9-0.7-1.9-1-2.7-0.5c-1.6,1.1,2.7,4,4.8,5.3
				c1.4,2.9,2.6,4.9,2.6,4.9h3.9C129.6,204.5,130.6,179.2,122.3,182.3z"/>
			<path class="st7" d="M132.8,189.2c-2-1.8-3.3-0.6-4.1,0.8c0.3,1.8,0.6,3.8,0.7,5.7C131.5,194.5,135.6,191.6,132.8,189.2z"/>
			<path class="st7" d="M124.1,197.8c-0.1-1.4-0.9-2.2-1.4-2.7c-0.9-0.9-1.6-0.4-1.6-0.4l0,0C122.6,195.9,124.1,197.8,124.1,197.8z"
				/>
			<path class="st9" d="M139.6,204.5c0,0,0.8-2.5,3.3-1.3c0.5,0.2,0.2,0.9,0.9,1.4"/>
			<path class="st10" d="M142.2,204.5c0,0,0.8-2.5,3.3-1.3c0.5,0.2,0.2,0.9,0.9,1.4"/>
			<path class="st7" d="M126.7,209.1c-0.1-1.5-0.4-3-0.9-4.4c-0.2-0.4-0.3-0.8-0.5-1.1c-0.2-0.3-0.4-0.5-0.7-0.5
				c-0.1-0.2-0.3-0.3-0.5-0.3c0,0,0,0-0.1,0c-0.2-0.1-0.6-0.1-0.8-0.1c-0.5,0.1-1,0.4-1.4,0.8c-0.5,0.6-0.8,1.4-1,2.1
				c-0.5,1.8-0.7,3.6-0.7,5.4c0.2-2.6,0.7-5.3,2.4-7.2c-0.2,0.5-0.2,1.1-0.3,1.5c-0.2,1.6-0.5,2.8-0.4,4.4c0.1,0.9,0.6,2.1,1.2,2.8
				c-0.4-1.6-0.7-3.2-0.6-4.8c0.1-1,0.4-2,0.8-2.9c-0.1,1-0.1,2,0.1,3c0.2,0.8,0.5,1.6,0.7,2.4c0.4,1.3,0.6,2.6,0.8,3.9
				c-0.1-1.6-0.2-3.3-0.5-4.9c-0.3-1.5-0.7-3.1-0.2-4.6c0-0.1,0.1-0.2,0.1-0.3c0.3,0.4,0.6,0.9,0.8,1.2c0.8,1.6,1.2,3.3,1.3,5
				c0,0.6,0,1.2,0.2,1.8C126.8,211.4,126.8,210.2,126.7,209.1z"/>
			<path class="st7" d="M124.9,208.1c0.1-1.5,0.4-3,0.9-4.4c0.2-0.4,0.3-0.8,0.5-1.1c0.2-0.3,0.4-0.5,0.7-0.5
				c0.1-0.2,0.3-0.3,0.5-0.3c0,0,0,0,0.1,0c0.2-0.1,0.6-0.1,0.8-0.1c0.5,0.1,1,0.4,1.4,0.8c0.5,0.6,0.8,1.4,1,2.1
				c0.5,1.8,0.7,3.6,0.7,5.4c-0.2-2.6-0.7-5.3-2.4-7.2c0.2,0.5,0.2,1.1,0.3,1.5c0.2,1.6,0.5,2.8,0.4,4.4c-0.1,0.9-0.6,2.1-1.2,2.8
				c0.4-1.6,0.7-3.2,0.6-4.8c-0.1-1-0.4-2-0.8-2.9c0.1,1,0.1,2-0.1,3c-0.2,0.8-0.5,1.6-0.7,2.4c-0.4,1.3-0.6,2.6-0.8,3.9
				c0.1-1.6,0.2-3.3,0.5-4.9c0.3-1.5,0.7-3.1,0.2-4.6c0-0.1-0.1-0.2-0.1-0.3c-0.3,0.4-0.6,0.9-0.8,1.2c-0.8,1.6-1.2,3.3-1.3,5
				c0,0.6,0,1.2-0.2,1.8C124.8,210.4,124.8,209.3,124.9,208.1z"/>
			<path class="st11" d="M121.4,208.4c0.1-1.5,0.4-3,0.9-4.4c0.2-0.4,0.3-0.8,0.5-1.1c0.2-0.3,0.4-0.5,0.7-0.5
				c0.1-0.2,0.3-0.3,0.5-0.3c0,0,0,0,0.1,0c0.2-0.1,0.6-0.1,0.8-0.1c0.5,0.1,1,0.4,1.4,0.8c0.5,0.6,0.8,1.4,1,2.1
				c0.5,1.8,0.7,3.6,0.7,5.4c-0.2-2.6-0.7-5.3-2.4-7.2c0.2,0.5,0.2,1.1,0.3,1.5c0.2,1.6,0.5,2.8,0.4,4.4c-0.1,0.9-0.6,2.1-1.2,2.8
				c0.4-1.6,0.7-3.2,0.6-4.8c-0.1-1-0.4-2-0.8-2.9c0.1,1,0.1,2-0.1,3c-0.2,0.8-0.5,1.6-0.7,2.4c-0.4,1.3-0.6,2.6-0.8,3.9
				c0.1-1.6,0.2-3.3,0.5-4.9c0.3-1.5,0.7-3.1,0.2-4.6c0-0.1-0.1-0.2-0.1-0.3c-0.3,0.4-0.6,0.9-0.8,1.2c-0.8,1.6-1.2,3.3-1.3,5
				c0,0.6,0,1.2-0.2,1.8C121.3,210.6,121.3,209.5,121.4,208.4z"/>
			<path class="st12" d="M129.4,204.5c-0.5-1.6,0-2.7,0-2.7s10.5-0.6,11.2-0.2c0.7,0.4,0.4,2.9,0.4,2.9L129.4,204.5z"/>
			<path class="st13" d="M136.9,195.4c-3.2-3.4-4.5,0.7-4.5,0.7l2.8,2.3L136.9,195.4z"/>
			<path class="st13" d="M123.8,199.4c0,0,3.1-8.9,9.1-4.2c6,4.7-2.6,1.5-4.5,2.8C126.4,199.4,123.8,199.4,123.8,199.4z"/>
			<path class="st13" d="M127.4,207.5c0,0-2.1-8.9,5.4-8.3c7.5,0.6-0.1,4.2-2.3,5C128,205,127.4,207.5,127.4,207.5z"/>
			<path class="st12" d="M141.5,207.5c0,0,2.1-8.9-5.4-8.3c-7.5,0.6,0.1,4.2,2.3,5C140.9,205,141.5,207.5,141.5,207.5z"/>
			<path class="st14" d="M146.3,196.7c0,0-4.7-8.1-9.7-2.3c-5,5.8,2.9,0.9,5,1.9C143.7,197.2,146.3,196.7,146.3,196.7z"/>
			<path class="st14" d="M124.8,198.4c0,0,2.1-7.9,8.1-3.2c6,4.7-2.6-0.8-4.5,0.6C126.5,197.1,124.8,198.4,124.8,198.4z"/>
			<path class="st14" d="M134.2,197.3c0,0-8-3.8-8.2,6.2c0,0,2.3-4.2,6.5-3C136.7,201.7,134.2,197.3,134.2,197.3z"/>
			<path class="st12" d="M133.5,198c0,0-2.5,0.7-3.4,2.8c-1,2.1,1.3,4,2.3,7.8c0,0-0.9-3.6,2.3-6.8C137.9,198.7,133.5,198,133.5,198
				z"/>
			<path class="st14" d="M135.6,197c0,0,8.2-3.2,7.8,6.8c0,0-2-4.4-6.3-3.5C132.8,201.2,135.6,197,135.6,197z"/>
			<path class="st13" d="M134.5,197.6c0,0,2.5,0.7,3.4,2.8c1,2.1-1.3,4.4-2.3,8.2c0,0-0.2-3.2-2.3-7.2
				C132.4,199.6,134.5,197.6,134.5,197.6z"/>
			<path class="st13" d="M136.5,196.3c0,0,8-3.8,8.2,6.2c0,0-2.3-4.2-6.5-3C134,200.7,136.5,196.3,136.5,196.3z"/>
			<path class="st14" d="M134.8,196.5c-3.6,0.4,1.2,5.8,1.2,5.8S138.5,196,134.8,196.5z"/>
			<path class="st8" d="M146.6,204.5c0,0-5.1-12.2,3.1-11.2c8,0.9,0.6,11.2,0.6,11.2H146.6z"/>
			
				<ellipse transform="matrix(0.1644 -0.9864 0.9864 0.1644 -66.2988 309.8884)" class="st15" cx="149.7" cy="194.1" rx="0.7" ry="2.7"/>
			
				<ellipse transform="matrix(0.1644 -0.9864 0.9864 0.1644 -66.0088 309.7237)" class="st16" cx="149.8" cy="193.8" rx="0.6" ry="2.2"/>
			<path class="st7" d="M150.7,193.5c-0.8-1.5-1.7-0.2-1.7-0.2l0.8,1L150.7,193.5z"/>
			<path class="st11" d="M154,194.9c0,0-0.9-3.2-3.3-1.8c-2.4,1.4,1,0.6,1.6,1.1C153,194.8,154,194.9,154,194.9z"/>
			<path class="st11" d="M145.9,193.3c0,0,1.6-2.4,3.3-0.3s-1-0.1-1.8,0.2S145.9,193.3,145.9,193.3z"/>
			<path class="st11" d="M149.8,193.7c-1.4-0.2-0.2,2-0.2,2S151.2,193.9,149.8,193.7z"/>
		</g>
	</g>
	<g id="books">
		<g id="book_4_">
			<rect x="122" y="52" class="st13" width="16" height="66"/>
			<rect x="122" y="60" class="st17" width="16" height="5"/>
			<rect x="126" y="72" class="st12" width="8" height="2"/>
			<rect x="126" y="76" class="st12" width="8" height="4"/>
		</g>
		<g id="book_3_">
			<rect x="138" y="58" class="st18" width="16" height="60"/>
			<rect x="138" y="68" class="st19" width="16" height="2"/>
			<rect x="138" y="106" class="st19" width="16" height="2"/>
			<rect x="144" y="77" class="st20" width="4" height="22"/>
			<rect x="138" y="58" class="st20" width="3" height="60"/>
			<rect x="138" y="68" class="st21" width="3" height="2"/>
			<rect x="138" y="106" class="st21" width="3" height="2"/>
			<rect x="151" y="58" class="st20" width="3" height="60"/>
			<rect x="151" y="68" class="st21" width="3" height="2"/>
			<rect x="151" y="106" class="st21" width="3" height="2"/>
		</g>
		<g id="book_2_">
			<rect x="154" y="56" class="st17" width="16" height="62"/>
			<rect x="154" y="112" class="st19" width="16" height="6"/>
			<rect x="163" y="56" class="st22" width="2" height="50"/>
			<rect x="167" y="56" class="st23" width="3" height="56"/>
			<rect x="157.3" y="54" class="st13" width="1" height="2"/>
			<rect x="167" y="112" class="st24" width="3" height="6"/>
		</g>
		<g id="book_1_">
			<rect x="182" y="56" class="st18" width="16" height="62"/>
			<rect x="187" y="108" class="st17" width="6" height="5"/>
			<rect x="182" y="56" class="st20" width="3" height="62"/>
		</g>
		<g id="stand">
			<polygon class="st2" points="203.5,58 203.5,110.9 205.5,110.9 205.4,60.4 			"/>
			<path class="st0" d="M215.2,110.9c0,0-15.6-6.7-0.9-33.3c0,0-9.1-6.4-7.6-2.4c2.8,7.4-0.4,12.2-1.2,13.9c-0.8,1.5-1.4,3-1.8,4.5
				V58H200v60h2.9h0.7H222v-7.1H215.2z M203.5,110.9V102c0.9,3,2.9,6,6.5,8.8H203.5z"/>
			<path class="st2" d="M215.2,110.9c-15.7-9.3-0.9-33.3-0.9-33.3l-2.5,0.8c0,0-7.1,17.2-4.9,23.7S215.2,110.9,215.2,110.9z"/>
		</g>
		<g id="book">
			<rect x="170" y="52" class="st25" width="12" height="66"/>
			<rect x="172" y="65" class="st26" width="8" height="40"/>
		</g>
	</g>
	<g id="shapes">
		<rect x="21" y="196" class="st27" width="40" height="40"/>
		<g>
			<g>
				<polygon class="st28" points="85.1,200 66,236 106,236 				"/>
			</g>
			<polygon class="st27" points="85.1,200 77,236 106,236 			"/>
		</g>
		<g>
			<polygon class="st28" points="34.8,163 22,196 55.9,196 			"/>
			<polygon class="st27" points="34.8,163 55.9,196 67,163.2 			"/>
			<polygon class="st28" points="67,163.2 58.5,196 55.9,196 			"/>
			<polygon class="st27" points="34.8,163 30.7,167.2 22,196 			"/>
		</g>
	</g>
	<g id="camera">
		<path class="st22" d="M202,236v-8h24.4c0,0,0.6,0.5,0.6,4c0,3.6-0.6,4-0.6,4H202z"/>
		<ellipse transform="matrix(0.9397 -0.342 0.342 0.9397 -61.2874 71.6396)" class="st29" cx="172.5" cy="209.6" rx="3" ry="1"/>
		<path class="st30" d="M205.3,212l-11.8-3l-4.5-6h-10l-4.5,6l0,0c-1.3,1-3.1,1.7-7.5,1.7c-2.5,0-4.7-0.2-6.5-0.6
			c-0.3,0.4-0.5,1-0.5,1.5v21.7c0,1.5,1.2,2.6,2.7,2.6h42.7c1.5,0,2.7-1.2,2.7-2.6v-18.7C208,213.2,206.8,212,205.3,212z"/>
		<path class="st9" d="M195,212.8l-4.1-0.8c3.4,2.2,5.7,6.1,5.7,10.5c0,6.9-5.6,12.5-12.5,12.5s-12.5-5.6-12.5-12.5
			c0-6,4.2-11,9.9-12.2l-6.9-1.3c-1,0.8-2.3,1.3-4.7,1.6l0,0l-2.4,25.4h32l1-21.4L195,212.8z"/>
		<path class="st9" d="M184,211c-6.4,0-11.5,5.1-11.5,11.5c0,6.4,5.1,11.5,11.5,11.5s11.5-5.1,11.5-11.5
			C195.5,216.1,190.4,211,184,211z M184,233c-5.8,0-10.5-4.7-10.5-10.5c0-5.8,4.7-10.5,10.5-10.5s10.5,4.7,10.5,10.5
			C194.5,228.3,189.8,233,184,233z"/>
		<path class="st29" d="M184,202c-5,0-5,1-5,1l1,2h8l1-2C189,203,189,202,184,202z"/>
		<polygon class="st29" points="200.3,214.6 199.4,236 200.3,236 		"/>
		<path class="st29" d="M206.2,217.8h-4.3c-0.2,0-0.3-0.2-0.3-0.3v-1.3c0-0.2,0.2-0.3,0.3-0.3h4.3c0.2,0,0.3,0.2,0.3,0.3v1.3
			C206.5,217.7,206.4,217.8,206.2,217.8z"/>
		<path class="st29" d="M167.3,236h-4.7c-1.5,0-2.7-1.2-2.7-2.7v-21.7c0-1.5,1.2-2.7,2.7-2.7h4.7c1.5,0,2.7,1.2,2.7,2.7v21.7
			C170,234.8,168.8,236,167.3,236z"/>
		<path class="st30" d="M170,211.7c0-1.5-1.2-2.7-2.7-2.7h-4.7c-1.5,0-2.7,1.2-2.7,2.7l5,1.2L170,211.7z"/>
		<ellipse class="st29" cx="165" cy="211" rx="2" ry="1"/>
		<circle class="st29" cx="184" cy="222.5" r="10.5"/>
	</g>
	<g id="cat">
		<path class="st9" d="M114.7,155c-5.2-6.2-17-14.1-12-23c5.1-8.9-0.7-18.9-13.7-27.2c-13.6-9.3-46.2-2.5-48.3-2.1
			c-0.1-1.5-0.5-2.9-1.1-4.2c0.2,0,0.4,0,0.6,0c1.8-0.6,2.1-8.8,2.1-8.8l-6.9,3.9c-2.2-1.3-4.9-2-8.1-2c-2.6,0-4.8,0.5-6.7,1.3
			c-2.5-1.5-8.3-2.4-8.3-2.4s0,6.4,2.7,7.7c-0.8,1.7-1.2,3.6-1.2,5.8c0,3.7,1.2,6,3.3,7.5l0,0c-1.1,1.1-2.9,2.5-4.5,2.5
			c-6.2-0.1-8.5,2-8.5,2l0,0c-0.9,0.6-1.5,1.7-1.5,2.9c0,1.9,1.6,3.5,3.5,3.5c1.3,0,2.4-0.7,3-1.6c0.3-0.5,0.5-1.2,0.5-1.9h8
			c0.2,1.7,1.7,3,3.4,3c1.3,0,2.4-0.7,3-1.6l17.4-1.4H43h16.5l0,0c0.2,0,0.4,0,0.4,0l12.7,0l15.9,0c0,0,1.2-2.2,0.8-4.3
			c-0.4-1.9,4.9,2.3,6.6,4.3h0c2.9,2.7,4.9,6.5,2.1,11.2c-6.1,10,1.7,17.5,5.3,20.4c5.2,4.3,11.7,10.8,10.4,22.3
			c-1.3,11.9,5.5,6.7,6.3,2.1C120.9,170.4,119.9,161.2,114.7,155z M21.4,113.3C21.4,113.3,21.4,113.3,21.4,113.3
			C21.4,113.3,21.4,113.3,21.4,113.3z M59.3,119C59.3,119,59.3,119,59.3,119C59.3,119,59.3,119,59.3,119z"/>
		<path class="st9" d="M16.3,111C16.4,111,16.4,111,16.3,111C16.4,111,16.4,111,16.3,111z"/>
		<path class="st30" d="M33.4,115.6c-3.5,0.2-12.4,0.4-12.4,0.4c-1.9,0-3.5,1.6-3.5,3.5s1.6,3.5,3.5,3.5c1.3,0,2.4-0.7,3-1.6
			l17.4-1.4H43c3.1-1.8,5.9-5.8,7.6-7.6c2.6-2.7,3-6.1,10-7c11.3-1.4,19.9,4.8,15.5,4.8c-9.3,0-6.9,4.1-5.5,6.8
			c-3.5-1.1-9.6-2.5-11.8,0.2c-2.5,3,1.2,2.7,1.2,2.7l12.7,0l15.9,0h0c0,0,1.2-2.2,0.8-4.3c-0.4-1.9,4.9,2.3,6.6,4.3h0
			c2.9,2.7,4.9,6.5,2.1,11.2c-6.1,10,1.7,17.5,5.3,20.4c5.2,4.3,11.7,10.8,10.4,22.3c-1.3,11.9,5.5,6.7,6.3,2.1
			c0.8-4.6-0.1-13.8-5.4-20s-17-14.1-12-23c5.1-8.9-0.7-18.9-13.7-27.2c-13.6-9.3-46.2-2.5-48.3-2.1c-0.1-1.5-0.5-2.9-1.1-4.2
			c0.2,0,0.4,0,0.6,0c1.8-0.6,2.1-8.8,2.1-8.8l-6.9,3.9c-2.2-1.3-4.9-2-8.1-2c-2.6,0-4.8,0.5-6.7,1.3c-2.5-1.5-8.3-2.4-8.3-2.4
			s0,6.4,2.7,7.7c-0.8,1.7-1.2,3.6-1.2,5.8c0,7.7,5.2,9.6,13.5,9.6c6.8,0,11.5-1.3,13-6c3.5,2,0.6,5-0.6,5.6
			C38.2,115.2,35.1,115.5,33.4,115.6z"/>
		<path class="st9" d="M103.3,149.6c5.2,4.3,11.7,10.8,10.4,22.3c-1.3,11.9,5.5,6.7,6.3,2.1c0.8-4.6,0.2-10.1-5-16.3"/>
		<path class="st29" d="M18,106.1c0,0,2.6-2,4.9,0c1.3,1.1-0.5,0.3-2.2,0C19.3,105.8,18,106.1,18,106.1z"/>
		<path class="st9" d="M26.4,110.2c0,0,2.7,2.5,5.5,0.5c1.5-1.1-0.3,0.1-2.2,0.3C28,111.2,26.4,110.2,26.4,110.2z"/>
		<path class="st29" d="M34.5,106.1c0,0-2.6-2-4.9,0c-1.3,1.1,0.5,0.3,2.2,0C33.2,105.8,34.5,106.1,34.5,106.1z"/>
		<path class="st9" d="M28.4,108.7c0,0.6-1.4,1.7-2,1.7s-1.9-1-1.9-1.6s1.4-0.7,2-0.7C27,108,28.4,108.1,28.4,108.7z"/>
		<path class="st25" d="M23.6,111.8c0,0-0.5,2.9,0.8,2.6c1.3-0.3,0.9-3.3,0.9-3.3S24.2,111.5,23.6,111.8z"/>
		<path class="st9" d="M26.4,110.3c0,0-2.5,2.7-5.4,0.9c-1.6-1,0.3,0.1,2.2,0.2C24.8,111.4,26.4,110.3,26.4,110.3z"/>
		<path class="st29" d="M95.9,118c-1.8-2-7-6.2-6.6-4.3c0.4,2.1-0.8,4.3-0.8,4.3H95.9z"/>
	</g>
</g>
<g id="x">
	<g id="shelf_1_">
		<path class="st0" d="M479,0H245h-2v2v236h2v0l117-117l117,117v0h2V2V0H479z M478.2,2L362,118.2L245.9,2H478.2z M245,235.2V4
			l115.6,115.6L245,235.2z M363.5,119.6L479,4v231.2L363.5,119.6z"/>
		<polygon class="st3" points="463.8,8 260.4,8 362.1,109.7 		"/>
		<polygon class="st2" points="463.8,8 478.2,2 245.9,2 260.4,8 		"/>
		<polygon class="st4" points="478.2,2 463.8,8 362.1,109.7 260.4,8 245.9,2 362,118.2 362.1,118.1 362.1,118.2 		"/>
		<polygon class="st1" points="251,220.7 251,18.5 245,4 245,235.1 		"/>
		<polygon class="st1" points="362,118.2 344.9,101 362.1,109.7 378.6,101.6 		"/>
		<polygon class="st3" points="473.1,18.4 371.9,119.6 473.1,220.7 473.1,18.5 		"/>
		<polygon class="st1" points="473.1,220.7 371.9,119.6 363.5,119.6 479.1,235.1 		"/>
		<polygon class="st2" points="479,4.1 479,4 363.5,119.6 371.9,119.6 473.1,18.4 		"/>
		<polygon class="st4" points="473.1,18.5 473.1,220.7 479.1,235.2 479.1,4 		"/>
		<polygon class="st2" points="352.1,119.6 352.2,119.6 360.6,119.6 360.6,119.6 245,4 251,18.5 		"/>
		<polygon class="st1" points="362,118.2 392,88.3 362.1,46.9 332.2,88.3 		"/>
		<polygon class="st3" points="251,18.5 251,220.7 352.1,119.6 		"/>
		<polygon class="st4" points="360.6,119.6 352.2,119.6 251,220.7 245,235.1 		"/>
		<polygon class="st2" points="362.1,109.7 335.8,83.4 332.2,88.3 362,118.2 		"/>
	</g>
	<g id="mugs">
		<g id="mug_2_">
			<path class="st27" d="M284.5,98.9C284.5,98.9,284.5,98.8,284.5,98.9c-0.1-0.2-0.1-0.3-0.1-0.4c-0.3-1-1.2-2.9-3.4-6.4
				s-3.5-5.1-4.3-5.8c-0.1-0.1-0.1-0.1-0.2-0.2c0,0,0,0-0.1-0.1c-1-0.8-2.3-1-3.5-0.5l0,0c-1.8-2.9-5.7-3.8-8.6-1.9
				c-2.9,1.8-3.8,5.7-1.9,8.6l0,0c-2.2,1.9-2.8,5.2-1.2,7.8l4.2,6.6c1.8,2.8,5.5,3.6,8.3,1.9l9.5-6
				C284.4,101.7,284.9,100.2,284.5,98.9z M265.6,85.6c1.8-1.2,4.2-0.6,5.4,1.2l-6.6,4.2C263.3,89.2,263.8,86.8,265.6,85.6z"/>
			<path class="st28" d="M279.9,92.9c-4.4-7-5.3-6.4-5.3-6.4s-0.9,0.5,3.6,7.5s5.3,6.4,5.3,6.4S284.3,99.9,279.9,92.9z"/>
			<path class="st28" d="M265.7,98.2l-0.4-0.2c0.1-0.1,0.1-0.3,0-0.4c-0.1-0.2-0.4-0.2-0.6-0.1c-0.2,0.1-0.3,0.4-0.2,0.6
				c0.1,0.1,0.2,0.2,0.4,0.2l0,0.5c-0.3,0-0.6-0.2-0.8-0.5c-0.3-0.5-0.2-1,0.3-1.3c0.5-0.3,1-0.2,1.3,0.3
				C265.8,97.6,265.8,97.9,265.7,98.2z"/>
			<path class="st28" d="M266.6,100.3l-1,0.6l-0.3-0.5l0.9-0.5c0.2-0.1,0.2-0.3,0.1-0.5c-0.1-0.2-0.4-0.2-0.6-0.1l-0.8,0.5l-0.3-0.5
				l2.2-1.3l0.3,0.5l-0.9,0.5c0.3,0,0.5,0.1,0.6,0.4C267.1,99.7,267,100,266.6,100.3z"/>
			<path class="st28" d="M267.7,102l-1,0.6l-0.3-0.5l0.2-0.1c-0.2,0-0.4-0.1-0.5-0.4c-0.2-0.3-0.1-0.7,0.2-0.8
				c0.3-0.2,0.6-0.1,0.9,0.3l0.3,0.4l0,0c0.2-0.1,0.2-0.3,0.1-0.5c-0.1-0.1-0.2-0.3-0.4-0.4l0.2-0.3c0.3,0.2,0.5,0.4,0.6,0.6
				C268.1,101.4,268.1,101.8,267.7,102z M266.9,101.8l0.1-0.1l-0.2-0.3c-0.1-0.2-0.2-0.2-0.3-0.1c-0.1,0.1-0.1,0.2-0.1,0.3
				C266.6,101.8,266.8,101.8,266.9,101.8z"/>
			<path class="st28" d="M267.8,104.5l-0.3-0.5l0.3-0.2c-0.3,0-0.5-0.1-0.6-0.3c-0.2-0.3-0.1-0.7,0.3-0.9l1-0.6l0.3,0.5l-0.9,0.5
				c-0.2,0.1-0.2,0.3-0.1,0.4c0.1,0.2,0.4,0.2,0.6,0.1l0.8-0.5l0.3,0.5L267.8,104.5z"/>
			<path class="st28" d="M270.3,105.3l-0.4,0c0-0.3-0.1-0.5-0.1-0.6c-0.1-0.1-0.1-0.1-0.2-0.1c-0.2,0.1,0.4,0.9-0.2,1.2
				c-0.3,0.2-0.7,0-0.9-0.4c-0.2-0.3-0.2-0.6-0.2-0.8l0.4,0c0,0.3,0,0.5,0.1,0.7c0.1,0.1,0.1,0.2,0.2,0.1c0.2-0.1-0.4-0.9,0.2-1.2
				c0.3-0.2,0.7,0,0.9,0.3C270.2,104.7,270.3,105,270.3,105.3z"/>
		</g>
		<circle class="st0" cx="266.3" cy="86.7" r="2"/>
		<g id="mug_1_">
			<path class="st17" d="M292.1,139.7C292.1,139.7,292.1,139.7,292.1,139.7c-0.1-0.2-0.1-0.2-0.2-0.3c-0.5-0.9-1.8-2.5-4.7-5.5
				c-2.9-2.9-4.6-4.2-5.5-4.7c-0.1-0.1-0.2-0.1-0.2-0.1c0,0-0.1,0-0.1,0c-1.1-0.6-2.5-0.5-3.5,0.3l0,0c-2.4-2.4-6.4-2.4-8.8,0
				c-2.4,2.4-2.4,6.4,0,8.8l0,0c-1.8,2.3-1.6,5.7,0.5,7.8l5.5,5.5c2.3,2.3,6.1,2.3,8.5,0l7.9-7.9
				C292.6,142.5,292.8,140.9,292.1,139.7z M270.8,130.9c1.5-1.5,4-1.5,5.5,0l-5.5,5.5C269.2,134.9,269.2,132.4,270.8,130.9z"/>
			<path class="st31" d="M286.2,134.9c-5.8-5.8-6.5-5.1-6.5-5.1s-0.7,0.7,5.1,6.5c5.8,5.8,6.5,5.1,6.5,5.1S292.1,140.7,286.2,134.9z
				"/>
			<path class="st30" d="M281.8,139.3c-0.8-0.8-2.5-0.6-3.6,0.6s-1.4,2.8-0.6,3.6c0.8,0.8,2.5,0.6,3.6-0.6S282.6,140.2,281.8,139.3z
				 M279.8,141.3l-0.5,0.6l-1,0.5l1.1-0.8l0.3-0.8l1.6-0.3L279.8,141.3z"/>
			
				<rect x="273.7" y="144.5" transform="matrix(0.7071 0.7071 -0.7071 0.7071 183.3 -153.0375)" class="st30" width="5.3" height="0.4"/>
		</g>
		<circle class="st0" cx="271.9" cy="131.9" r="2"/>
		<g id="mug">
			<path class="st19" d="M302.2,127.1l10.9,2.7c3.2,0.8,6.5-1.2,7.2-4.4l1.9-7.5c0.7-2.9-0.9-5.9-3.6-7l0,0c0.8-3.3-1.2-6.7-4.5-7.5
				c-3.3-0.8-6.7,1.2-7.5,4.5l0,0c-1.3-0.2-2.5,0.5-3.2,1.5c0,0,0,0.1,0,0.1c0,0.1-0.1,0.2-0.1,0.2c-0.5,0.9-1.2,2.9-2.2,6.9
				c-1,4-1.2,6.1-1.2,7.1c0,0.1,0,0.2,0,0.3c0,0,0,0.1,0,0.1C299.8,125.5,300.8,126.7,302.2,127.1z M316.4,110.3l-7.6-1.9
				c0.5-2.1,2.6-3.4,4.7-2.8C315.6,106.1,316.9,108.2,316.4,110.3z"/>
			<path class="st21" d="M302.3,116.9c2-8,3-7.7,3-7.7s1,0.2-1,8.2s-3,7.7-3,7.7S300.3,124.9,302.3,116.9z"/>
			<path class="st21" d="M311.9,117c-0.1,0-0.2,0-0.3,0c0-0.1,0-0.2-0.1-0.2c-0.3-0.5-0.9-0.8-1.3-0.5c-0.4,0.2-0.5,0.9-0.2,1.4
				c0,0,0,0,0,0.1c-0.6,0.5-1,1.3-1,2.2c0,0.4,0.1,0.7,0.2,1c-0.2,0.1-0.3,0.2-0.4,0.4c-0.3,0.5-0.2,1,0.2,1.3
				c0.4,0.2,0.9,0,1.2-0.5c0.5,0.4,1.1,0.7,1.8,0.7c1.6,0,2.9-1.3,2.9-2.9C314.8,118.3,313.5,117,311.9,117z"/>
			<ellipse class="st25" cx="312.5" cy="120.1" rx="0.4" ry="0.6"/>
		</g>
		<circle class="st0" cx="312.8" cy="107" r="2"/>
	</g>
	<g id="postcards">
		<g id="card_1_">
			<rect x="400" y="94" class="st27" width="34" height="34"/>
			<rect x="403" y="120" class="st19" width="28" height="5"/>
			<path class="st19" d="M403,97v13.3c0,0,2.2-4.5,5.9-3.5c3.7,1,4.8,5.4,6.9,4.6c2.1-0.7,4-1.7,7.7,0.1s7.4,1.5,7.4,1.5V97H403z"/>
			<circle class="st32" cx="422.5" cy="103.5" r="1.5"/>
			<circle class="st0" cx="417.4" cy="94" r="1"/>
		</g>
		<g id="card">
			
				<rect x="429.6" y="132.3" transform="matrix(0.9781 -0.2079 0.2079 0.9781 -21.284 96.1074)" class="st27" width="34" height="34"/>
			<circle class="st0" cx="443" cy="132.7" r="1"/>
			<polygon class="st14" points="438.4,159.2 437.6,155.3 447.4,153.2 443.6,135.6 430,138.5 435.8,165.9 449.5,163 448.2,157.1 			
				"/>
			<polygon class="st12" points="443.6,135.6 445.3,143.4 453.1,141.8 455.2,151.6 447.4,153.2 437.6,155.3 438.4,159.2 
				448.2,157.1 449.5,163 463.2,160.1 457.3,132.7 			"/>
			
				<rect x="446.3" y="142.5" transform="matrix(0.9781 -0.2079 0.2079 0.9781 -20.8268 96.8384)" class="st13" width="8" height="10"/>
		</g>
	</g>
	<g id="wines">
		<g id="wine_3_">
			<circle class="st32" cx="362" cy="60.4" r="13.5"/>
			<path class="st33" d="M364.3,60c3.4,1.2,5,3.4,3.9,6.9c-1.2,3.4-4.9,4.2-8.4,3.1c-3.4-1.2-5.2-3.8-4.1-7.2
				C356.9,59.2,360.9,58.8,364.3,60z"/>
			<circle class="st11" cx="362" cy="60.4" r="5"/>
			<circle class="st34" cx="362" cy="60.4" r="4"/>
			<polygon class="st35" points="358.4,59.4 360.4,60.5 362.4,59.3 360.2,59.6 358.5,58.9 			"/>
			<path class="st35" d="M364.8,58.7c0.9,2.2,0.1,3.4-0.8,4c-0.7,0.5-1.4,0.6-1.4,0.6l-0.3-2.7l1.2,1.4l0.7-1.4L364.8,58.7z"/>
			<path class="st27" d="M365.2,51.8c-0.5-0.4-1.6-2.4,1.4-1.7c4.8,1.1,5.9,5,5.9,5.1c0.3,0.7-1.2,3-2.2,0.8
				C368.6,52,366.1,52.6,365.2,51.8z"/>
			<path class="st27" d="M361,51.7c0,0-0.9-1.4,0.5-1.8c1.5-0.4,1.3,1.1,0.9,1.3C362.1,51.4,361.9,52.3,361,51.7z"/>
		</g>
		<g id="wine_2_">
			<circle class="st18" cx="362" cy="98.6" r="13.5"/>
			<path class="st20" d="M366.5,99.1c3.5,0.9,5.2,3,4.4,6.6s-4.5,4.7-8,3.8c-3.5-0.9-5.5-3.4-4.6-6.9C359.1,99,363,98.2,366.5,99.1z
				"/>
			<circle class="st13" cx="362" cy="98.6" r="5"/>
			<circle class="st6" cx="362" cy="98.6" r="4"/>
			<polygon class="st36" points="358.4,97.6 360.4,98.7 362.4,97.5 360.2,97.7 358.5,97 			"/>
			<path class="st36" d="M364.8,96.9c0.9,2.2,0.1,3.4-0.8,4c-0.7,0.5-1.4,0.6-1.4,0.6l-0.3-2.7l1.2,1.4l0.7-1.4L364.8,96.9z"/>
			<path class="st37" d="M365.2,90c-0.5-0.4-1.6-2.4,1.4-1.7c4.8,1.1,5.9,5,5.9,5.2c0.3,0.7-1.2,3-2.2,0.8
				C368.6,90.2,366.1,90.7,365.2,90z"/>
			<path class="st37" d="M370.1,98.7c0,0-0.9-1.4,0.5-1.8c1.5-0.4,1.3,1.1,0.9,1.3C371.2,98.4,371,99.2,370.1,98.7z"/>
		</g>
		<g id="wine_1_">
			<circle class="st13" cx="381.1" cy="79.5" r="13.5"/>
			<path class="st12" d="M379,80.2c3.5-0.8,6.1,0.2,6.9,3.7c0.8,3.4-1.9,6-5.4,6.8s-6.4-0.5-7.3-3.9C372.4,83.4,375.5,81,379,80.2z"
				/>
			<circle class="st20" cx="381.1" cy="79.5" r="5"/>
			<circle class="st6" cx="381.1" cy="79.5" r="4"/>
			<path class="st36" d="M382.3,81.8c-2.4,0-3.2-1.1-3.4-2.1c-0.2-0.8,0-1.5,0-1.5l2.6,0.7l-1.7,0.7l1.1,1.2L382.3,81.8z"/>
			<path class="st14" d="M380.1,70.4c-0.6-0.3-2.2-1.7,0.8-2c4.8-0.4,7,2.9,7.1,3c0.5,0.6-0.2,3-1.8,1.4
				C383.3,69.6,381.2,70.8,380.1,70.4z"/>
			<path class="st14" d="M389.2,76c0,0-0.9-1.4,0.5-1.8c1.5-0.4,1.3,1.1,0.9,1.3C390.3,75.7,390.1,76.6,389.2,76z"/>
		</g>
		<g id="wine">
			<circle class="st18" cx="342.9" cy="79.5" r="13.5"/>
			<path class="st20" d="M344.9,79.2c3.5,0.8,5.3,3,4.5,6.5c-0.8,3.6-4.4,4.7-7.9,3.9c-3.5-0.8-5.5-3.3-4.7-6.9
				S341.4,78.4,344.9,79.2z"/>
			<circle class="st13" cx="342.9" cy="79.5" r="5"/>
			<circle class="st6" cx="342.9" cy="79.5" r="4"/>
			<polygon class="st36" points="343.6,75.8 342.5,77.8 343.7,79.8 343.5,77.6 344.2,76 			"/>
			<path class="st36" d="M344.8,82.3c-2.2,0.9-3.4,0.1-4-0.8c-0.5-0.7-0.6-1.4-0.6-1.4l2.7-0.3l-1.4,1.2l1.4,0.7L344.8,82.3z"/>
			<path class="st37" d="M346.1,70.9c-0.5-0.4-1.6-2.4,1.4-1.7c4.8,1.1,5.9,5,5.9,5.2c0.3,0.7-1.2,3-2.2,0.8
				C349.5,71.1,347,71.6,346.1,70.9z"/>
			<path class="st37" d="M351,79.6c0,0-0.9-1.4,0.5-1.8c1.5-0.4,1.3,1.1,0.9,1.3C352.1,79.3,351.9,80.1,351,79.6z"/>
		</g>
	</g>
</g>
</svg>
