<svg width="510px" height="250px" viewBox="0 0 510 250" version="1.1" xmlns="http://www.w3.org/2000/svg" xmlns:xlink="http://www.w3.org/1999/xlink">
    <!-- Generator: Sketch 48.2 (47327) - http://www.bohemiancoding.com/sketch -->
    <desc>Created with Sketch.</desc>
    <defs>
        <polygon id="path-1" points="0 250 250 250 250 0 0 0"></polygon>
        <polygon id="path-3" points="0 250 250 250 250 0 0 0"></polygon>
    </defs>
    <g id="Page-1" stroke="none" stroke-width="1" fill="none" fill-rule="evenodd">
        <g id="Desktop" transform="translate(-454.000000, -138.000000)">
            <g id="Group-5" transform="translate(454.000000, 138.000000)">
                <g id="Page-1">
                    <path d="M123.949475,0.000420168067 L123.949475,123.95 L-0.000105042017,123.95 L-0.000105042017,250.00042 L123.949475,250.00042 L249.999895,250.00042 L249.999895,0.000420168067 L123.949475,0.000420168067 Z M126.050315,123.95 L247.899055,123.95 L247.899055,2.1012605 L126.050315,2.1012605 L126.050315,123.95 Z M126.050315,247.89958 L247.899055,247.89958 L247.899055,126.05084 L126.050315,126.05084 L126.050315,247.89958 Z M2.10073529,247.89958 L123.949475,247.89958 L123.949475,126.05084 L2.10073529,126.05084 L2.10073529,247.89958 Z" id="Fill-1" fill="#463524"></path>
                    <polygon id="Fill-2" fill="#896E54" points="126.05042 247.89916 132.352941 247.89916 132.352941 132.352941 126.05042 126.05042"></polygon>
                    <polygon id="Fill-3" fill="#896E54" points="126.05042 123.94958 132.352941 123.94958 132.352941 8.40336134 126.05042 2.10084034"></polygon>
                    <polygon id="Fill-4" fill="#896E54" points="2.10084034 247.89916 8.40336134 247.89916 8.40336134 132.352941 2.10084034 126.05042"></polygon>
                    <polygon id="Fill-5" fill="#725C45" points="123.94958 126.05042 2.10084034 126.05042 8.40336134 132.352941 117.647059 132.352941"></polygon>
                    <polygon id="Fill-6" fill="#725C45" points="241.596639 132.352941 247.89916 126.05042 126.05042 126.05042 132.352941 132.352941"></polygon>
                    <polygon id="Fill-7" fill="#725C45" points="241.596639 8.40336134 247.89916 2.10084034 126.05042 2.10084034 132.352941 8.40336134"></polygon>
                    <polygon id="Fill-8" fill="#B89271" points="8.40336134 247.89916 117.647059 247.89916 117.647059 132.352941 8.40336134 132.352941"></polygon>
                    <polygon id="Fill-9" fill="#A08063" points="123.94958 247.89916 117.647059 247.89916 117.647059 132.352941 123.94958 126.05042"></polygon>
                    <polygon id="Fill-10" fill="#B89271" points="241.596639 132.352941 132.352941 132.352941 132.352941 247.89916 247.89916 247.89916 241.596639 247.89916"></polygon>
                    <polygon id="Fill-11" fill="#A08063" points="247.89916 247.89916 241.596639 247.89916 241.596639 132.352941 247.89916 126.05042"></polygon>
                    <polygon id="Fill-12" fill="#B89271" points="241.596639 8.40336134 132.352941 8.40336134 132.352941 123.94958 247.89916 123.94958 241.596639 123.94958"></polygon>
                    <polygon id="Fill-13" fill="#A08063" points="247.89916 123.94958 241.596639 123.94958 241.596639 8.40336134 247.89916 2.10084034"></polygon>
                    <polygon id="Fill-14" fill="#AD642D" points="127.02521 220.719538 160.113445 220.719538 160.113445 214.810924 127.02521 214.810924"></polygon>
                    <polygon id="Fill-15" fill="#935523" points="128.798004 220.719538 158.341071 220.719538 154.795903 247.89916 132.343172 247.89916"></polygon>
                    <g id="Group-135">
                        <path d="M152.696113,214.808824 C152.696113,214.808824 145.821113,197.973739 153.817962,194.988445 C161.815861,192.004202 156.470273,214.808824 156.470273,214.808824 L152.696113,214.808824 Z" id="Fill-16" fill="#2A4924"></path>
                        <path d="M147.923109,214.808824 C147.923109,214.808824 136.761345,203.909664 144.27605,200.973739 C151.789706,198.036765 152.310714,214.808824 152.310714,214.808824 L147.923109,214.808824 Z" id="Fill-18" fill="#2A4924"></path>
                        <path d="M128.515966,191.441176 C124.131513,193.063025 125.114706,199.063025 127.143067,204.576681 C126.154622,203.888655 125.114706,203.514706 124.312185,204.07563 C122.636765,205.246849 127.197689,208.327731 129.306933,209.639706 C130.755462,212.65021 132.055882,214.808824 132.055882,214.808824 L136.131513,214.808824 C136.131513,214.808824 137.15042,188.246849 128.515966,191.441176" id="Fill-20" fill="#446739"></path>
                        <path d="M139.52479,198.735084 C137.441807,196.883193 136.034244,198.096429 135.187605,199.561765 C135.547899,201.493487 135.780042,203.557563 135.92605,205.52395 C138.119328,204.268697 142.417647,201.306513 139.52479,198.735084" id="Fill-22" fill="#2A4924"></path>
                        <path d="M130.321849,207.781618 C130.22521,206.279517 129.354412,205.466492 128.872269,204.995903 C127.932143,204.077836 127.140126,204.573634 127.140126,204.573634 L127.141176,204.575735 C128.803992,205.732248 130.321849,207.781618 130.321849,207.781618" id="Fill-24" fill="#2A4924"></path>
                        <path d="M146.604937,214.792437 C146.604937,214.792437 147.428466,212.218908 150.11334,213.378571 C150.633298,213.603361 150.304517,214.289286 151.056618,214.809244" id="Fill-26" fill="#383638"></path>
                        <path d="M149.332983,214.792437 C149.332983,214.792437 150.156513,212.218908 152.841387,213.378571 C153.361345,213.603361 153.032563,214.289286 153.784664,214.809244" id="Fill-28" fill="#4A4A4C"></path>
                        <path d="M133.107983,219.664496 C132.97458,218.085714 132.713025,216.501681 132.118487,215.032143 C131.954622,214.626681 131.765546,214.230672 131.554412,213.846218 C131.389496,213.543697 131.095378,213.323109 130.84958,213.304202 C130.744538,213.116176 130.581723,212.979622 130.335924,212.988025 C130.307563,212.989076 130.297059,213.007983 130.271849,213.012185 C130.037605,212.920798 129.611134,212.89979 129.482983,212.920798 C128.92416,213.012185 128.409454,213.347269 128.046008,213.773739 C127.508193,214.402941 127.242437,215.213866 127.032353,216.014286 C126.544958,217.880882 126.302311,219.810504 126.313866,221.739076 C126.477731,219.036345 127.058613,216.184454 128.862185,214.197059 C128.703571,214.730672 128.637395,215.342017 128.578571,215.818908 C128.37584,217.451261 128.04916,218.805252 128.169958,220.438655 C128.238235,221.366176 128.782353,222.663445 129.396849,223.361975 C129.015546,221.697059 128.631092,219.997479 128.796008,218.297899 C128.89895,217.241176 129.215126,216.219118 129.617437,215.232773 C129.509244,216.27584 129.501891,217.328361 129.721429,218.358824 C129.907353,219.233824 130.247689,220.067857 130.507143,220.92395 C130.914706,222.264286 131.120588,223.657143 131.32542,225.042647 C131.269748,223.316807 131.109034,221.593067 130.801261,219.894538 C130.511345,218.294748 130.096429,216.614076 130.639496,215.083613 C130.681513,214.962815 130.729832,214.846218 130.777101,214.727521 C131.061765,215.196008 131.442017,215.680252 131.596429,216.00063 C132.387395,217.643487 132.862185,219.439706 132.97458,221.261134 C133.014496,221.910294 133.011345,222.571008 133.20042,223.193908 C133.238235,222.016387 133.206723,220.837815 133.107983,219.664496" id="Fill-30" fill="#2A4924"></path>
                        <path d="M131.244013,218.633088 C131.377416,217.054307 131.638971,215.470273 132.232458,214.000735 C132.397374,213.595273 132.58645,213.199265 132.797584,212.814811 C132.9625,212.51229 133.256618,212.291702 133.502416,212.272794 C133.606408,212.084769 133.770273,211.948214 134.016071,211.956618 C134.044433,211.957668 134.054937,211.976576 134.079097,211.980777 C134.314391,211.889391 134.740861,211.869433 134.869013,211.889391 C135.426786,211.980777 135.942542,212.315861 136.305987,212.742332 C136.842752,213.371534 137.109559,214.183508 137.318592,214.982878 C137.807038,216.849475 138.049685,218.779097 138.03813,220.707668 C137.873214,218.004937 137.293382,215.153046 135.489811,213.165651 C135.648424,213.699265 135.714601,214.310609 135.773424,214.7875 C135.975105,216.419853 136.302836,217.773845 136.182038,219.407248 C136.11271,220.334769 135.569643,221.632038 134.955147,222.330567 C135.33645,220.665651 135.719853,218.966071 135.554937,217.266492 C135.453046,216.209769 135.13687,215.18771 134.733508,214.202416 C134.842752,215.244433 134.850105,216.296954 134.630567,217.327416 C134.444643,218.202416 134.103256,219.03645 133.843803,219.892542 C133.43729,221.233929 133.231408,222.625735 133.026576,224.011239 C133.082248,222.285399 133.242962,220.56166 133.550735,218.86313 C133.840651,217.26334 134.255567,215.583718 133.7125,214.052206 C133.670483,213.932458 133.622164,213.814811 133.574895,213.696113 C133.290231,214.164601 132.909979,214.648845 132.755567,214.969223 C131.964601,216.61208 131.489811,218.408298 131.377416,220.229727 C131.3375,220.878887 131.340651,221.540651 131.151576,222.1625 C131.113761,220.984979 131.144223,219.806408 131.244013,218.633088" id="Fill-32" fill="#2A4924"></path>
                        <path d="M127.51166,218.883403 C127.645063,217.304622 127.906618,215.720588 128.501155,214.252101 C128.665021,213.845588 128.854097,213.44958 129.065231,213.065126 C129.230147,212.762605 129.524265,212.542017 129.770063,212.523109 C129.875105,212.335084 130.03792,212.198529 130.283718,212.206933 C130.31208,212.207983 130.322584,212.226891 130.346744,212.231092 C130.582038,212.139706 131.008508,212.119748 131.13666,212.139706 C131.694433,212.231092 132.210189,212.566176 132.573634,212.992647 C133.11145,213.621849 133.377206,214.433824 133.58729,215.233193 C134.074685,217.09979 134.317332,219.029412 134.305777,220.957983 C134.140861,218.255252 133.561029,215.403361 131.757458,213.415966 C131.916071,213.94958 131.982248,214.560924 132.041071,215.037815 C132.242752,216.670168 132.570483,218.02416 132.449685,219.657563 C132.380357,220.585084 131.83729,221.882353 131.222794,222.580882 C131.604097,220.915966 131.98855,219.216387 131.822584,217.516807 C131.720693,216.460084 131.404517,215.438025 131.001155,214.452731 C131.110399,215.494748 131.117752,216.547269 130.898214,217.577731 C130.71229,218.452731 130.371954,219.286765 130.1125,220.142857 C129.704937,221.484244 129.499055,222.87605 129.294223,224.261555 C129.349895,222.536765 129.510609,220.811975 129.818382,219.113445 C130.108298,217.514706 130.523214,215.834034 129.980147,214.302521 C129.93813,214.182773 129.889811,214.065126 129.842542,213.946429 C129.557878,214.414916 129.177626,214.89916 129.023214,215.219538 C128.232248,216.862395 127.757458,218.658613 127.645063,220.480042 C127.605147,221.129202 127.608298,221.790966 127.419223,222.412815 C127.381408,221.235294 127.41292,220.056723 127.51166,218.883403" id="Fill-34" fill="#6F9C5B"></path>
                        <path d="M135.889916,214.791912 C135.322689,213.13645 135.889916,211.955777 135.889916,211.955777 C135.889916,211.955777 146.926681,211.348634 147.707143,211.767752 C148.488655,212.18687 148.137815,214.808718 148.137815,214.808718 L135.889916,214.791912 Z" id="Fill-36" fill="#570023"></path>
                        <path d="M143.753151,205.217122 C140.427521,201.609979 139.076681,205.983929 139.076681,205.983929 L141.997899,208.36313 L143.753151,205.217122 Z" id="Fill-38" fill="#6B0A31"></path>
                        <path d="M130.02437,209.407983 C130.02437,209.407983 133.290126,200.042437 139.569538,204.985714 C145.84895,209.928992 136.806933,206.543487 134.796429,207.976261 C132.786975,209.407983 130.02437,209.407983 130.02437,209.407983" id="Fill-40" fill="#6B0A31"></path>
                        <path d="M133.831092,217.941176 C133.831092,217.941176 131.62416,208.636555 139.490756,209.221639 C147.358403,209.806723 139.380462,213.608193 137.071639,214.426471 C134.493908,215.340336 133.831092,217.941176 133.831092,217.941176" id="Fill-42" fill="#6B0A31"></path>
                        <path d="M148.660084,217.941176 C148.660084,217.941176 150.868067,208.636555 143.00042,209.221639 C135.133824,209.806723 143.111765,213.608193 145.419538,214.426471 C147.997269,215.340336 148.660084,217.941176 148.660084,217.941176" id="Fill-44" fill="#570023"></path>
                        <path d="M153.658824,206.623004 C153.658824,206.623004 148.713445,198.084139 143.470798,204.18708 C138.227101,210.288971 146.471849,205.163971 148.709244,206.169223 C150.947689,207.173424 153.658824,206.623004 153.658824,206.623004" id="Fill-46" fill="#96204A"></path>
                        <path d="M131.079937,208.363235 C131.079937,208.363235 133.290021,200.042857 139.569433,204.986134 C145.848845,209.928361 136.884559,204.164706 134.875105,205.597479 C132.866702,207.030252 131.079937,208.363235 131.079937,208.363235" id="Fill-48" fill="#96204A"></path>
                        <path d="M140.990651,207.222584 C140.990651,207.222584 132.58834,203.219433 132.335189,213.7625 C132.335189,213.7625 134.699685,209.357038 139.168172,210.616492 C143.635609,211.876996 140.990651,207.222584 140.990651,207.222584" id="Fill-50" fill="#96204A"></path>
                        <path d="M140.270063,208.02521 C140.270063,208.02521 137.684979,208.745798 136.689181,210.953782 C135.68813,213.173319 138.080987,215.164916 139.076786,219.122899 C139.076786,219.122899 138.166071,215.35084 141.503256,212.026261 C144.840441,208.701681 140.270063,208.02521 140.270063,208.02521" id="Fill-52" fill="#570023"></path>
                        <path d="M142.477626,206.88666 C142.477626,206.88666 151.139391,203.526366 150.651996,214.059979 C150.651996,214.059979 148.602626,209.48855 144.057458,210.409769 C139.51334,211.329937 142.477626,206.88666 142.477626,206.88666" id="Fill-54" fill="#96204A"></path>
                        <path d="M141.31334,207.596429 C141.31334,207.596429 143.898424,208.317017 144.894223,210.525 C145.895273,212.744538 143.502416,215.164706 142.506618,219.122689 C142.506618,219.122689 142.307038,215.802311 140.080147,211.598529 C139.076996,209.703571 141.31334,207.596429 141.31334,207.596429" id="Fill-56" fill="#6B0A31"></path>
                        <path d="M143.395693,206.184979 C143.395693,206.184979 151.799055,202.181828 152.051155,212.724895 C152.051155,212.724895 149.68666,208.319433 145.219223,209.578887 C140.750735,210.839391 143.395693,206.184979 143.395693,206.184979" id="Fill-58" fill="#6B0A31"></path>
                        <path d="M141.638025,206.390651 C137.884874,206.83813 142.885924,212.449475 142.885924,212.449475 C142.885924,212.449475 145.505672,205.929517 141.638025,206.390651" id="Fill-60" fill="#96204A"></path>
                        <path d="M153.974265,214.808824 C153.974265,214.808824 148.596113,202.030462 157.181197,203.043067 C165.575105,204.033613 157.78729,214.808824 157.78729,214.808824 L153.974265,214.808824 Z" id="Fill-62" fill="#446739"></path>
                        <path d="M160.142962,204.3375 C160.067332,204.739811 158.731197,204.853256 157.159769,204.58855 C155.58834,204.324895 154.376155,203.783929 154.451786,203.380567 C154.527416,202.978256 155.86355,202.864811 157.434979,203.129517 C159.006408,203.393172 160.218592,203.934139 160.142962,204.3375" id="Fill-64" fill="#5A824A"></path>
                        <path d="M159.638761,203.977941 C159.577836,204.302521 158.502206,204.392857 157.23645,204.180672 C155.970693,203.967437 154.994853,203.532563 155.055777,203.207983 C155.116702,202.883403 156.192332,202.792017 157.458088,203.005252 C158.723845,203.217437 159.700735,203.653361 159.638761,203.977941" id="Fill-66" fill="#4A6F3E"></path>
                        <path d="M158.278046,203.26145 C157.431408,201.719433 156.483929,203.045063 156.483929,203.045063 L157.309559,204.135399 L158.278046,203.26145 Z" id="Fill-68" fill="#2A4924"></path>
                        <path d="M161.764706,204.732983 C161.764706,204.732983 160.834034,201.377941 158.281513,202.888445 C155.727941,204.397899 159.280462,203.518697 159.996849,204.080672 C160.714286,204.643697 161.764706,204.732983 161.764706,204.732983" id="Fill-70" fill="#6F9C5B"></path>
                        <path d="M153.306513,203.031618 C153.306513,203.031618 154.976681,200.472794 156.767647,202.760609 C158.559664,205.048424 155.745588,202.694433 154.860084,202.969643 C153.97563,203.245903 153.306513,203.031618 153.306513,203.031618" id="Fill-72" fill="#6F9C5B"></path>
                        <path d="M157.381408,203.439916 C155.959139,203.209874 157.21229,205.591176 157.21229,205.591176 C157.21229,205.591176 158.847794,203.677311 157.381408,203.439916" id="Fill-74" fill="#6F9C5B"></path>
                        <mask id="mask-2" fill="white">
                            <use xlink:href="#path-1"></use>
                        </mask>
                        <g id="Clip-77"></g>
                        <polygon id="Fill-76" fill="#6B0A31" mask="url(#mask-2)" points="128.151261 123.94958 144.957983 123.94958 144.957983 54.6218487 128.151261 54.6218487"></polygon>
                        <polygon id="Fill-78" fill="#626366" mask="url(#mask-2)" points="128.151261 68.2773109 144.957983 68.2773109 144.957983 63.0252101 128.151261 63.0252101"></polygon>
                        <polygon id="Fill-79" fill="#570023" mask="url(#mask-2)" points="132.352941 77.7310924 140.756303 77.7310924 140.756303 75.6302521 132.352941 75.6302521"></polygon>
                        <polygon id="Fill-80" fill="#570023" mask="url(#mask-2)" points="132.352941 84.0336134 140.756303 84.0336134 140.756303 79.8319328 132.352941 79.8319328"></polygon>
                        <polygon id="Fill-81" fill="#1A2F56" mask="url(#mask-2)" points="144.957983 123.94958 161.764706 123.94958 161.764706 60.9243697 144.957983 60.9243697"></polygon>
                        <polygon id="Fill-82" fill="#C7CAE0" mask="url(#mask-2)" points="144.957983 73.5294118 161.764706 73.5294118 161.764706 71.4285714 144.957983 71.4285714"></polygon>
                        <polygon id="Fill-83" fill="#C7CAE0" mask="url(#mask-2)" points="144.957983 113.445378 161.764706 113.445378 161.764706 111.344538 144.957983 111.344538"></polygon>
                        <polygon id="Fill-84" fill="#0F2347" mask="url(#mask-2)" points="151.260504 103.991597 155.462185 103.991597 155.462185 80.8823529 151.260504 80.8823529"></polygon>
                        <polygon id="Fill-85" fill="#0F2347" mask="url(#mask-2)" points="144.957983 123.94958 148.109244 123.94958 148.109244 60.9243697 144.957983 60.9243697"></polygon>
                        <polygon id="Fill-86" fill="#AEB1C5" mask="url(#mask-2)" points="144.957983 73.5294118 148.109244 73.5294118 148.109244 71.4285714 144.957983 71.4285714"></polygon>
                        <polygon id="Fill-87" fill="#AEB1C5" mask="url(#mask-2)" points="144.957983 113.445378 148.109244 113.445378 148.109244 111.344538 144.957983 111.344538"></polygon>
                        <polygon id="Fill-88" fill="#0F2347" mask="url(#mask-2)" points="158.613445 123.94958 161.764706 123.94958 161.764706 60.9243697 158.613445 60.9243697"></polygon>
                        <polygon id="Fill-89" fill="#AEB1C5" mask="url(#mask-2)" points="158.613445 73.5294118 161.764706 73.5294118 161.764706 71.4285714 158.613445 71.4285714"></polygon>
                        <polygon id="Fill-90" fill="#AEB1C5" mask="url(#mask-2)" points="158.613445 113.445378 161.764706 113.445378 161.764706 111.344538 158.613445 111.344538"></polygon>
                        <polygon id="Fill-91" fill="#626366" mask="url(#mask-2)" points="161.764706 123.94958 178.571429 123.94958 178.571429 58.8235294 161.764706 58.8235294"></polygon>
                        <polygon id="Fill-92" fill="#C7CAE0" mask="url(#mask-2)" points="161.764706 123.94958 178.571429 123.94958 178.571429 117.647059 161.764706 117.647059"></polygon>
                        <polygon id="Fill-93" fill="#808184" mask="url(#mask-2)" points="171.218487 111.344538 173.319328 111.344538 173.319328 58.8235294 171.218487 58.8235294"></polygon>
                        <polygon id="Fill-94" fill="#58585B" mask="url(#mask-2)" points="175.420168 117.647059 178.571429 117.647059 178.571429 58.8235294 175.420168 58.8235294"></polygon>
                        <polygon id="Fill-95" fill="#6B0A31" mask="url(#mask-2)" points="165.192227 58.8235294 166.242647 58.8235294 166.242647 56.7226891 165.192227 56.7226891"></polygon>
                        <polygon id="Fill-96" fill="#ADB0C5" mask="url(#mask-2)" points="175.420168 123.94958 178.571429 123.94958 178.571429 117.647059 175.420168 117.647059"></polygon>
                        <polygon id="Fill-97" fill="#1A2F56" mask="url(#mask-2)" points="191.176471 123.94958 207.983193 123.94958 207.983193 58.8235294 191.176471 58.8235294"></polygon>
                        <polygon id="Fill-98" fill="#626366" mask="url(#mask-2)" points="196.428571 118.697479 202.731092 118.697479 202.731092 113.445378 196.428571 113.445378"></polygon>
                        <polygon id="Fill-99" fill="#0F2347" mask="url(#mask-2)" points="191.176471 123.92542 194.327731 123.92542 194.327731 58.8235294 191.176471 58.8235294"></polygon>
                        <polygon id="Fill-100" fill="#725C45" mask="url(#mask-2)" points="213.792332 60.9243697 213.792332 116.444328 215.845903 116.444328 215.760819 63.4611345"></polygon>
                        <path d="M213.792332,116.444328 L213.792332,107.185924 C214.756618,110.323529 216.86271,113.45063 220.593803,116.444328 L213.792332,116.444328 Z M226.001366,116.444328 C226.001366,116.444328 209.634769,109.433824 225.005567,81.5052521 C225.005567,81.5052521 215.403676,74.7773109 216.999265,78.9779412 C219.93834,86.7153361 216.619013,91.835084 215.689391,93.6197479 C214.884769,95.164916 214.238761,96.7605042 213.792332,98.3834034 L213.792332,60.9243697 L210.084349,60.9243697 L210.084349,123.94958 L213.106408,123.94958 L213.792332,123.94958 L233.193592,123.94958 L233.193592,116.444328 L226.001366,116.444328 Z" id="Fill-101" fill="#463524" mask="url(#mask-2)"></path>
                        <path d="M226.001366,116.444328 C209.529727,106.622899 225.005567,81.5052521 225.005567,81.5052521 L222.369013,82.3140756 C222.369013,82.3140756 214.871113,100.383403 217.192542,107.185924 C219.513971,113.989496 226.001366,116.444328 226.001366,116.444328" id="Fill-102" fill="#725C45" mask="url(#mask-2)"></path>
                        <polygon id="Fill-103" fill="#967AA2" mask="url(#mask-2)" points="178.571429 123.94958 191.176471 123.94958 191.176471 54.6218487 178.571429 54.6218487"></polygon>
                        <polygon id="Fill-104" fill="#846B8E" mask="url(#mask-2)" points="180.672269 110.294118 189.07563 110.294118 189.07563 68.2773109 180.672269 68.2773109"></polygon>
                        <polygon id="Fill-105" fill="#FEFEFE" mask="url(#mask-2)" points="22.0588235 247.89916 64.0756303 247.89916 64.0756303 205.882353 22.0588235 205.882353"></polygon>
                        <polygon id="Fill-106" fill="#DBDCDD" mask="url(#mask-2)" points="89.4390756 210.084034 69.3277311 247.89916 111.344538 247.89916"></polygon>
                        <polygon id="Fill-107" fill="#FEFEFE" mask="url(#mask-2)" points="89.4390756 210.084034 80.8455882 247.89916 111.344538 247.89916"></polygon>
                        <polygon id="Fill-108" fill="#DBDCDD" mask="url(#mask-2)" points="36.5390756 171.218487 23.1094538 205.882353 58.7670168 205.882353"></polygon>
                        <polygon id="Fill-109" fill="#FEFEFE" mask="url(#mask-2)" points="36.5390756 171.218487 58.7670168 205.882353 70.3783613 171.421218"></polygon>
                        <polygon id="Fill-110" fill="#DBDCDD" mask="url(#mask-2)" points="70.3781513 171.421113 61.4716387 205.882248 58.7668067 205.882248"></polygon>
                        <polygon id="Fill-111" fill="#FEFEFE" mask="url(#mask-2)" points="36.5390756 171.218487 32.2197479 175.607143 23.1094538 205.882353"></polygon>
                        <path d="M212.184874,247.89916 L212.184874,239.495798 L237.790966,239.495798 C237.790966,239.495798 238.445378,240.016807 238.445378,243.697479 C238.445378,247.445378 237.790966,247.89916 237.790966,247.89916 L212.184874,247.89916 Z" id="Fill-112" fill="#808184" mask="url(#mask-2)"></path>
                        <path d="M184.158403,219.099265 C184.356933,219.644433 183.192017,220.568803 181.556513,221.164391 C179.921008,221.759979 178.434664,221.799895 178.236134,221.254727 C178.037605,220.709559 179.202521,219.785189 180.838025,219.189601 C182.473529,218.595063 183.960924,218.554097 184.158403,219.099265" id="Fill-113" fill="#322F31" mask="url(#mask-2)"></path>
                        <path d="M215.702311,222.689076 L203.255882,219.537815 L198.528992,213.235294 L188.02479,213.235294 L183.297899,219.537815 C181.905042,220.578782 180.055252,221.329832 175.419748,221.329832 C172.814706,221.329832 170.436555,221.091387 168.60042,220.698529 C168.268487,221.157563 168.066807,221.714286 168.066807,222.319328 L168.066807,245.117647 C168.066807,246.647059 169.319958,247.89916 170.852521,247.89916 L215.702311,247.89916 C217.233824,247.89916 218.486975,246.647059 218.486975,245.117647 L218.486975,225.470588 C218.486975,223.941176 217.233824,222.689076 215.702311,222.689076" id="Fill-114" fill="#404042" mask="url(#mask-2)"></path>
                        <path d="M204.804727,223.542017 L200.457038,222.732143 C204.03792,225.076681 206.407668,229.118697 206.407668,233.718487 C206.407668,240.969538 200.528466,246.848739 193.277416,246.848739 C186.026366,246.848739 180.147164,240.969538 180.147164,233.718487 C180.147164,227.412815 184.594643,222.14916 190.523214,220.882353 L183.298424,219.537815 C182.242752,220.32563 180.923424,220.947479 178.333088,221.202731 L178.330987,221.202731 L175.78687,247.89916 L209.408718,247.89916 L210.433929,225.402311 L204.804727,223.542017 Z" id="Fill-115" fill="#383638" mask="url(#mask-2)"></path>
                        <path d="M193.277311,244.747899 C187.185924,244.747899 182.247899,239.809874 182.247899,233.718487 C182.247899,227.627101 187.185924,222.689076 193.277311,222.689076 C199.368697,222.689076 204.306723,227.627101 204.306723,233.718487 C204.306723,239.809874 199.368697,244.747899 193.277311,244.747899 M193.277311,221.638655 C186.606092,221.638655 181.197479,227.046218 181.197479,233.718487 C181.197479,240.389706 186.606092,245.798319 193.277311,245.798319 C199.948529,245.798319 205.357143,240.389706 205.357143,233.718487 C205.357143,227.046218 199.948529,221.638655 193.277311,221.638655" id="Fill-116" fill="#383638" mask="url(#mask-2)"></path>
                        <path d="M193.23729,212.184874 C188.025105,212.184874 188.025105,213.235294 188.025105,213.235294 L189.075525,215.336134 L197.478887,215.336134 L198.529307,213.235294 C198.529307,213.235294 198.529307,212.184874 193.23729,212.184874" id="Fill-117" fill="#322F31" mask="url(#mask-2)"></path>
                        <polygon id="Fill-118" fill="#322F31" mask="url(#mask-2)" points="210.434349 225.402836 209.409139 247.899685 210.434349 247.899685"></polygon>
                        <path d="M216.559874,228.81208 L212.036765,228.81208 C211.835084,228.81208 211.672269,228.649265 211.672269,228.447584 L211.672269,227.075735 C211.672269,226.874055 211.835084,226.711239 212.036765,226.711239 L216.559874,226.711239 C216.760504,226.711239 216.92437,226.874055 216.92437,227.075735 L216.92437,228.447584 C216.92437,228.649265 216.760504,228.81208 216.559874,228.81208" id="Fill-119" fill="#322F31" mask="url(#mask-2)"></path>
                        <path d="M175.78687,247.89916 L170.851996,247.89916 C169.320483,247.89916 168.067332,246.646008 168.067332,245.114496 L168.067332,222.322479 C168.067332,220.790966 169.320483,219.537815 170.851996,219.537815 L175.78687,219.537815 C177.318382,219.537815 178.571534,220.790966 178.571534,222.322479 L178.571534,245.114496 C178.571534,246.646008 177.318382,247.89916 175.78687,247.89916" id="Fill-120" fill="#322F31" mask="url(#mask-2)"></path>
                        <path d="M178.571429,222.378782 C178.571429,220.847269 177.318277,219.594118 175.786765,219.594118 L170.851891,219.594118 C169.320378,219.594118 168.067227,220.847269 168.067227,222.378782 L173.319328,223.683403 L178.571429,222.378782 Z" id="Fill-121" fill="#404042" mask="url(#mask-2)"></path>
                        <path d="M175.420168,221.638655 C175.420168,222.218487 174.478992,222.689076 173.319328,222.689076 C172.159664,222.689076 171.218487,222.218487 171.218487,221.638655 C171.218487,221.058824 172.159664,220.588235 173.319328,220.588235 C174.478992,220.588235 175.420168,221.058824 175.420168,221.638655" id="Fill-122" fill="#322F31" mask="url(#mask-2)"></path>
                        <path d="M204.306723,233.718487 C204.306723,239.809874 199.368697,244.747899 193.277311,244.747899 C187.185924,244.747899 182.247899,239.809874 182.247899,233.718487 C182.247899,227.627101 187.185924,222.689076 193.277311,222.689076 C199.368697,222.689076 204.306723,227.627101 204.306723,233.718487" id="Fill-123" fill="#322F31" mask="url(#mask-2)"></path>
                        <path d="M62.2394958,123.93729 L62.2552521,123.93834 L62.2394958,123.93729 Z M22.5304622,117.955147 C22.5294118,117.955147 22.5283613,117.955147 22.5273109,117.955147 C22.5283613,117.955147 22.5294118,117.955147 22.5304622,117.955147 Z M120.459034,161.803887 C114.986345,155.295483 102.559874,147.010819 107.885504,137.691492 C113.210084,128.371113 107.12395,117.831197 93.4810924,109.106408 C79.2142857,99.2954832 44.9768908,106.449895 42.7710084,106.875315 C42.6292017,105.263971 42.2542017,103.791282 41.6659664,102.475105 C41.875,102.506618 42.0745798,102.509769 42.2531513,102.446744 C44.1817227,101.772374 44.4159664,93.2429622 44.4159664,93.2429622 L37.1292017,97.3417017 C34.8655462,95.9719538 32.0031513,95.2261555 28.6596639,95.2261555 C25.9747899,95.2261555 23.5997899,95.7061975 21.5945378,96.6032563 C18.9180672,95.0727941 12.9033613,94.1116597 12.9033613,94.1116597 C12.9033613,94.1116597 12.9128151,100.854307 15.762605,102.241912 C14.9338235,103.996113 14.4789916,106.030777 14.4789916,108.323845 C14.4789916,112.173634 15.7331933,114.642122 17.9716387,116.184139 C16.8056723,117.294433 14.9044118,118.823845 13.2857143,118.803887 C6.80777311,118.726155 4.33403361,120.951996 4.33403361,120.951996 L4.33718487,120.955147 C3.39915966,121.621113 2.78256303,122.71145 2.78256303,123.949895 C2.78256303,125.980357 4.42857143,127.626366 6.45903361,127.626366 C7.77521008,127.626366 8.93067227,126.934139 9.57983193,125.894223 C9.93277311,125.330147 10.1355042,124.66313 10.1355042,123.949895 L18.5094538,123.949895 C18.7668067,125.729307 20.282563,127.101155 22.1334034,127.101155 C23.4495798,127.101155 24.605042,126.408929 25.2542017,125.369013 L43.5273109,123.949895 L45.1302521,123.949895 L62.4380252,123.949895 C62.6859244,123.959349 62.8634454,123.947794 62.8634454,123.947794 L76.2415966,123.949895 L92.980042,123.955147 C92.980042,123.955147 94.2163866,121.673634 93.7836134,119.428887 C93.3907563,117.393172 98.8844538,121.858508 100.735294,123.955147 L100.728992,123.955147 C103.784664,126.826996 105.866597,130.829097 102.891807,135.740861 C96.5304622,146.244013 104.711134,154.092752 108.490546,157.186239 C114.002101,161.696744 120.764706,168.530777 119.423319,180.617962 C118.038866,193.104307 125.193277,187.692542 126.080882,182.810189 C126.968487,177.928887 125.932773,168.31334 120.459034,161.803887 Z" id="Fill-124" fill="#383638" mask="url(#mask-2)"></path>
                        <path d="M17.1709034,116.603782 C17.175105,116.607983 17.1793067,116.611134 17.1835084,116.615336 C17.1793067,116.611134 17.175105,116.607983 17.1709034,116.603782" id="Fill-125" fill="#383638" mask="url(#mask-2)"></path>
                        <path d="M35.1147059,119.358613 C31.4434874,119.54979 22.1336134,119.748319 22.1336134,119.748319 C20.1021008,119.748319 18.4571429,121.393277 18.4571429,123.42479 C18.4571429,125.455252 20.1021008,127.101261 22.1336134,127.101261 C23.4497899,127.101261 24.6052521,126.409034 25.2544118,125.369118 L43.5264706,123.95 L45.1304622,123.95 C48.3815126,122.094958 51.35,117.85021 53.1409664,115.983613 C55.8394958,113.168487 56.2523109,109.55084 63.6241597,108.639076 C75.4960084,107.171639 84.5716387,113.665336 79.8836134,113.665336 C70.0684874,113.665336 72.6367647,117.979412 74.0537815,120.852311 C70.3363445,119.683193 64.0012605,118.244118 61.6451681,121.064496 C58.9928571,124.237815 62.8636555,123.947899 62.8636555,123.947899 L76.2418067,123.95 L92.9792017,123.954202 C92.9792017,123.954202 94.2165966,121.673739 93.7838235,119.428992 C93.3909664,117.392227 98.8836134,121.858613 100.735504,123.954202 L100.729202,123.954202 C103.784874,126.827101 105.866807,130.828151 102.892017,135.740966 C96.5306723,146.244118 104.710294,154.092857 108.490756,157.186345 C114.002311,161.696849 120.764916,168.530882 119.423529,180.618067 C118.038025,193.104412 125.193487,187.692647 126.081092,182.810294 C126.968697,177.928992 125.932983,168.312395 120.459244,161.803992 C114.986555,155.294538 102.560084,147.010924 107.884664,137.691597 C113.210294,128.371218 107.12416,117.830252 93.4802521,109.106513 C79.2144958,99.2945378 44.9771008,106.45 42.7712185,106.87542 C42.6283613,105.264076 42.2533613,103.791387 41.6661765,102.47521 C41.8752101,102.506723 42.0747899,102.508824 42.2523109,102.446849 C44.1819328,101.772479 44.4161765,93.2430672 44.4161765,93.2430672 L37.1294118,97.3418067 C34.8657563,95.9720588 32.0033613,95.2262605 28.6598739,95.2262605 C25.975,95.2262605 23.6,95.7063025 21.5947479,96.6033613 C18.9182773,95.0728992 12.9035714,94.1117647 12.9035714,94.1117647 C12.9035714,94.1117647 12.9119748,100.854412 15.7628151,102.242017 C14.9340336,103.996218 14.4792017,106.030882 14.4792017,108.32395 C14.4792017,116.413235 19.9581933,118.453151 28.6598739,118.453151 C35.7869748,118.453151 40.7460084,117.079202 42.310084,112.139076 C45.9455882,114.193697 42.9613445,117.365966 41.6535714,118.061345 C40.139916,118.867017 36.8268908,119.270378 35.1147059,119.358613" id="Fill-126" fill="#404042" mask="url(#mask-2)"></path>
                        <path d="M108.490231,157.186029 C114.001786,161.696534 120.765441,168.530567 119.424055,180.617752 C118.03855,193.104097 125.192962,187.692332 126.080567,182.811029 C126.968172,177.928676 126.271744,172.21229 120.798004,165.703887" id="Fill-127" fill="#383638" mask="url(#mask-2)"></path>
                        <path d="M18.9378151,111.459454 C18.9378151,111.459454 21.630042,109.320798 24.0859244,111.459454 C25.4084034,112.611765 23.5102941,111.787185 21.7560924,111.459454 C20.2539916,111.178992 18.9378151,111.459454 18.9378151,111.459454" id="Fill-128" fill="#322F31" mask="url(#mask-2)"></path>
                        <path d="M27.7391807,115.805777 C27.7391807,115.805777 30.5301471,118.469643 33.4923319,116.330987 C35.0868697,115.177626 33.1551471,116.484349 31.1614496,116.671324 C29.4545168,116.830987 27.7391807,115.805777 27.7391807,115.805777" id="Fill-129" fill="#383638" mask="url(#mask-2)"></path>
                        <path d="M36.2138655,111.459454 C36.2138655,111.459454 33.5216387,109.320798 31.0657563,111.459454 C29.7432773,112.611765 31.6413866,111.787185 33.3955882,111.459454 C34.8976891,111.178992 36.2138655,111.459454 36.2138655,111.459454" id="Fill-130" fill="#322F31" mask="url(#mask-2)"></path>
                        <path d="M29.8210084,114.16187 C29.8210084,114.799475 28.3357143,115.955987 27.6981092,115.955987 C27.0594538,115.955987 25.6571429,114.890861 25.6571429,114.253256 C25.6571429,113.614601 27.1014706,113.474895 27.7390756,113.474895 C28.3777311,113.474895 29.8210084,113.523214 29.8210084,114.16187" id="Fill-131" fill="#383638" mask="url(#mask-2)"></path>
                        <path d="M24.8167017,117.428046 C24.8167017,117.428046 24.2788866,120.471113 25.6570378,120.171744 C27.0362395,119.871324 26.5992647,116.725315 26.5992647,116.725315 C26.5992647,116.725315 25.4469538,117.083508 24.8167017,117.428046" id="Fill-132" fill="#967AA2" mask="url(#mask-2)"></path>
                        <path d="M27.7391807,115.825735 C27.7391807,115.825735 25.1477941,118.683929 22.0396008,116.764811 C20.3652311,115.730147 22.3862395,116.894013 24.3883403,116.936029 C26.1026261,116.972794 27.7391807,115.825735 27.7391807,115.825735" id="Fill-133" fill="#383638" mask="url(#mask-2)"></path>
                        <path d="M100.735714,123.954727 C98.8838235,121.858088 93.3911765,117.392752 93.7829832,119.428466 C94.2157563,121.674265 92.9794118,123.954727 92.9794118,123.954727 L100.735714,123.954727 Z" id="Fill-134" fill="#322F31" mask="url(#mask-2)"></path>
                    </g>
                </g>
                <g id="Page-1" transform="translate(260.000000, 0.000000)">
                    <path d="M0,0.000420168067 L0,2.1012605 L0,250.00042 L2.10084034,250.00042 L2.10084034,249.993067 L125.009454,127.085504 L247.89916,249.97521 L247.89916,250.00042 L250,250.00042 L250,0.000420168067 L0,0.000420168067 Z M2.99579832,2.1012605 L247.023109,2.1012605 L125.009454,124.113866 L2.99579832,2.1012605 Z M2.10084034,4.17689076 L123.52416,125.60021 L2.10084034,247.022479 L2.10084034,4.17689076 Z M126.494748,125.60021 L247.89916,4.1947479 L247.89916,247.004622 L126.494748,125.60021 Z" id="Fill-1" fill="#463524"></path>
                    <polygon id="Fill-2" fill="#B89271" points="231.888655 8.40336134 18.2111345 8.40336134 125.05042 115.242647"></polygon>
                    <polygon id="Fill-3" fill="#725C45" points="231.888655 8.40336134 247.023109 2.10084034 2.99579832 2.10084034 18.2111345 8.40336134"></polygon>
                    <polygon id="Fill-4" fill="#A08063" points="247.023319 2.10084034 231.888866 8.40336134 125.05063 115.242647 18.2113445 8.40336134 2.9960084 2.10084034 125.009664 124.114496 125.05063 124.073529 125.091597 124.114496"></polygon>
                    <polygon id="Fill-5" fill="#896E54" points="8.40357143 231.831513 8.40357143 19.392437 2.10105042 4.17710084 2.10105042 246.969118"></polygon>
                    <polygon id="Fill-6" fill="#896E54" points="125.009454 124.114706 106.995798 106.10105 125.05042 115.242857 142.394958 106.729202"></polygon>
                    <polygon id="Fill-7" fill="#B89271" points="241.672794 19.3260504 135.398634 125.60021 241.645483 231.846008 241.645483 19.3922269"></polygon>
                    <polygon id="Fill-8" fill="#896E54" points="241.645063 231.846429 135.399265 125.60063 126.494853 125.60063 247.933929 246.991387"></polygon>
                    <polygon id="Fill-9" fill="#725C45" points="247.908613 4.27142857 247.908613 4.17689076 126.494748 125.60021 135.39916 125.60021 241.672269 19.3260504"></polygon>
                    <polygon id="Fill-10" fill="#A08063" points="241.645063 19.3927521 241.645063 231.846534 247.947584 247.023004 247.947584 4.17741597"></polygon>
                    <polygon id="Fill-11" fill="#725C45" points="114.623214 125.61187 114.634769 125.600315 123.524475 125.600315 2.10115546 4.1769958 8.40367647 19.3923319"></polygon>
                    <polygon id="Fill-12" fill="#896E54" points="125.009454 124.114706 156.430672 92.7544118 125.05042 49.2418067 93.6880252 92.7544118"></polygon>
                    <polygon id="Fill-13" fill="#B89271" points="8.40357143 19.3927521 8.40357143 231.831828 114.623109 125.61229"></polygon>
                    <polygon id="Fill-14" fill="#A08063" points="123.538445 125.600105 114.634034 125.600105 8.4039916 231.831197 2.08571429 247.004517"></polygon>
                    <polygon id="Fill-15" fill="#725C45" points="125.05042 115.242542 97.4044118 87.5965336 93.6680672 92.7730042 125.009454 124.114391"></polygon>
                    <g id="Group-94">
                        <path d="M23.7485294,89.9452731 C25.6602941,88.7341387 28.1886555,89.2961134 29.4102941,91.1973739 L22.4628151,95.5996849 C21.2663866,93.6826681 21.8367647,91.1564076 23.7485294,89.9452731 M43.6088235,103.891702 C43.6004202,103.86229 43.5930672,103.830777 43.5836134,103.798214 C43.5552521,103.704727 43.5352941,103.610189 43.4985294,103.517752 C43.1508403,102.468382 42.2222689,100.500945 39.8913866,96.8244748 C37.5615546,93.1469538 36.1792017,91.4673319 35.3798319,90.7047269 C35.3115546,90.6322479 35.2359244,90.5734244 35.162395,90.5082983 C35.1371849,90.4862395 35.1119748,90.4652311 35.0888655,90.4452731 C34.0783613,89.5912815 32.6455882,89.3811975 31.4207983,89.9641807 L31.4165966,89.9578782 C29.4859244,86.9106092 25.4502101,86.0051471 22.4018908,87.9358193 C19.3535714,89.867542 18.4491597,93.9043067 20.3798319,96.9515756 L20.4008403,96.9851891 C18.0521008,98.9778361 17.457563,102.467332 19.1508403,105.13855 L23.5163866,112.028256 C25.3661765,114.948424 29.2684874,115.824475 32.1886555,113.973634 L42.1487395,107.663761 C43.4439076,106.842332 43.9838235,105.299265 43.6088235,103.891702" id="Fill-16" fill="#FEFEFE"></path>
                        <path d="M38.6841387,97.5901261 C34.0570378,90.287605 33.1610294,90.8548319 33.1610294,90.8548319 C33.1610294,90.8548319 32.2639706,91.4231092 36.8910714,98.7256303 C41.5181723,106.028151 42.4152311,105.460924 42.4152311,105.460924 C42.4152311,105.460924 43.3101891,104.892647 38.6841387,97.5901261" id="Fill-18" fill="#DBDCDD"></path>
                        <path d="M23.7926471,103.171008 L23.3273109,102.930462 C23.3861345,102.787605 23.3819328,102.633193 23.2926471,102.488235 C23.1655462,102.282353 22.9081933,102.245588 22.6592437,102.397899 C22.4029412,102.555462 22.3241597,102.80021 22.4512605,103.006092 C22.5447479,103.157353 22.6781513,103.236134 22.8472689,103.228782 L22.8577731,103.758193 C22.5310924,103.772899 22.2254202,103.591176 22.0079832,103.240336 C21.6939076,102.729832 21.819958,102.17416 22.3252101,101.863235 C22.8367647,101.54916 23.3934874,101.686765 23.7107143,102.201471 C23.9134454,102.531303 23.9407563,102.880042 23.7926471,103.171008" id="Fill-20" fill="#DBDCDD"></path>
                        <path d="M24.7528361,105.312815 L23.7055672,105.957773 L23.3778361,105.42521 L24.2769958,104.871639 C24.4713235,104.751891 24.5238445,104.565966 24.4114496,104.384244 C24.2822479,104.17416 24.0375,104.147899 23.8095588,104.287605 L22.9881303,104.791807 L22.6603992,104.260294 L24.9482143,102.852731 L25.2769958,103.385294 L24.3767857,103.938866 C24.6456933,103.934664 24.8631303,104.068067 25.0185924,104.312815 C25.2433824,104.680462 25.142542,105.073319 24.7528361,105.312815" id="Fill-22" fill="#DBDCDD"></path>
                        <path d="M25.082563,106.933088 L25.2306723,106.842752 L25.0247899,106.507668 C24.9260504,106.345903 24.8210084,106.299685 24.6981092,106.376366 C24.5783613,106.449895 24.5542017,106.583298 24.6445378,106.732458 C24.747479,106.898424 24.9281513,106.983508 25.082563,106.933088 M25.9271008,107.13792 L24.8420168,107.805987 L24.5216387,107.283929 L24.7117647,107.166282 C24.5048319,107.145273 24.3220588,107.016071 24.1834034,106.790231 C23.9659664,106.435189 24.0489496,106.0875 24.3535714,105.900525 C24.6686975,105.706197 24.9922269,105.817542 25.2485294,106.228256 L25.517437,106.665231 L25.5426471,106.650525 C25.7054622,106.549685 25.7390756,106.381618 25.6056723,106.167332 C25.5205882,106.027626 25.3598739,105.876366 25.1613445,105.755567 L25.4207983,105.388971 C25.6991597,105.572794 25.9113445,105.766071 26.0815126,106.042332 C26.3630252,106.499265 26.3010504,106.902626 25.9271008,107.13792" id="Fill-24" fill="#DBDCDD"></path>
                        <path d="M26.0709034,109.803782 L25.7431723,109.270168 L26.0173319,109.10105 C25.7494748,109.108403 25.5383403,108.984454 25.3902311,108.743908 C25.167542,108.382563 25.2704832,107.997059 25.6580882,107.758613 L26.7064076,107.113655 L27.0341387,107.647269 L26.1370798,108.19979 C25.9406513,108.320588 25.8870798,108.502311 25.9910714,108.671429 C26.1192227,108.873109 26.3597689,108.890966 26.5845588,108.752311 L27.4038866,108.248109 L27.7326681,108.781723 L26.0709034,109.803782 Z" id="Fill-26" fill="#DBDCDD"></path>
                        <path d="M28.6190126,110.5875 L28.1610294,110.617962 C28.1463235,110.351155 28.0906513,110.130567 28.0055672,109.992962 C27.9456933,109.896324 27.8669118,109.851155 27.7902311,109.898424 C27.5633403,110.039181 28.2125,110.845903 27.6305672,111.199895 C27.2881303,111.409979 26.9162815,111.226155 26.6704832,110.824895 C26.4992647,110.548634 26.4141807,110.231408 26.4456933,109.936239 L26.8889706,109.897374 C26.8721639,110.167332 26.929937,110.426786 27.0433824,110.61271 C27.1095588,110.717752 27.1935924,110.771324 27.2702731,110.723004 C27.5139706,110.573845 26.8585084,109.792332 27.442542,109.43729 C27.784979,109.226155 28.1484244,109.402626 28.3847689,109.78708 C28.5328782,110.028676 28.6137605,110.310189 28.6190126,110.5875" id="Fill-28" fill="#DBDCDD"></path>
                        <path d="M26.5089286,91.0962185 C26.5089286,92.2485294 25.575105,93.1823529 24.4238445,93.1823529 C23.2715336,93.1823529 22.3377101,92.2485294 22.3377101,91.0962185 C22.3377101,89.9439076 23.2715336,89.010084 24.4238445,89.010084 C25.575105,89.010084 26.5089286,89.9439076 26.5089286,91.0962185" id="Fill-30" fill="#463524"></path>
                        <path d="M29.1431723,137.497794 C30.7429622,135.898004 33.3332983,135.893803 34.9414916,137.479937 L29.1253151,143.297164 C27.5381303,141.68792 27.5423319,139.098634 29.1431723,137.497794 M51.5738445,146.760399 C51.5601891,146.733088 51.5444328,146.703676 51.5297269,146.674265 C51.4814076,146.589181 51.4404412,146.501996 51.3847689,146.420063 C50.8154412,145.472584 49.4782563,143.756197 46.4005252,140.677416 C43.3227941,137.599685 41.6053571,136.26355 40.6589286,135.693172 C40.5769958,135.6375 40.4887605,135.596534 40.4036765,135.549265 C40.3732143,135.533508 40.3448529,135.517752 40.3185924,135.504097 C39.1442227,134.892752 37.7009454,135.000945 36.6337185,135.83708 L36.6284664,135.832878 C34.0769958,133.281408 29.9404412,133.281408 27.3889706,135.832878 C24.8375,138.383298 24.8375,142.520903 27.3889706,145.071324 L27.4173319,145.099685 C25.5612395,147.557668 25.745063,151.092332 27.9814076,153.329727 L33.7482143,159.096534 C36.192542,161.541912 40.1935924,161.541912 42.6368697,159.096534 L50.9740546,150.759349 C52.0580882,149.675315 52.2471639,148.051366 51.5738445,146.760399" id="Fill-32" fill="#626366"></path>
                        <path d="M45.3888655,141.688761 C39.2764706,135.576366 38.5264706,136.326366 38.5264706,136.326366 C38.5264706,136.326366 37.7754202,137.076366 43.8888655,143.189811 C50.0023109,149.302206 50.7512605,148.552206 50.7512605,148.552206 C50.7512605,148.552206 51.5023109,147.802206 45.3888655,141.688761" id="Fill-34" fill="#404042"></path>
                        <path d="M38.6010504,148.389286 L38.080042,149.042647 L36.987605,149.554202 L38.1241597,148.760084 L38.4466387,147.957563 L40.0926471,147.693908 L38.6010504,148.389286 Z M40.7144958,146.364076 C39.8289916,145.477521 38.1168067,145.752731 36.8930672,146.977521 C35.6682773,148.201261 35.3930672,149.913445 36.2796218,150.79895 C37.1651261,151.684454 38.8762605,151.410294 40.1010504,150.185504 C41.3258403,148.960714 41.6,147.24958 40.7144958,146.364076 Z" id="Fill-36" fill="#404042"></path>
                        <polygon id="Fill-38" fill="#404042" points="36.8305672 154.169643 32.9082983 150.247374 33.2412815 149.914391 37.1635504 153.83666"></polygon>
                        <path d="M32.4267857,138.58729 C32.4267857,139.739601 31.4929622,140.673424 30.3417017,140.673424 C29.1893908,140.673424 28.2555672,139.739601 28.2555672,138.58729 C28.2555672,137.434979 29.1893908,136.502206 30.3417017,136.502206 C31.4929622,136.502206 32.4267857,137.434979 32.4267857,138.58729" id="Fill-40" fill="#463524"></path>
                        <path d="M77.0286765,115.809874 L69.0444328,113.832983 C69.6032563,111.642857 71.8227941,110.308824 74.0202731,110.852941 C76.2177521,111.397059 77.5570378,113.612395 77.0286765,115.809874 M62.172584,133.483193 L73.6179622,136.317227 C76.9730042,137.148109 80.3984244,135.084034 81.2293067,131.727941 L83.1893908,123.810924 C83.9509454,120.740546 82.2818277,117.618697 79.422584,116.471639 L79.4330882,116.433824 C80.2996849,112.930672 78.1641807,109.388655 74.6610294,108.521008 C71.1589286,107.653361 67.6169118,109.789916 66.7492647,113.292017 L66.7482143,113.298319 C65.4015756,113.133403 64.1085084,113.786765 63.4204832,114.915966 C63.4036765,114.942227 63.3879202,114.970588 63.370063,114.99895 C63.3217437,115.084034 63.2681723,115.163866 63.2261555,115.254202 C62.7093487,116.231092 61.929937,118.261555 60.8826681,122.487395 C59.8364496,126.713235 59.5790966,128.872899 59.5801471,129.977941 C59.574895,130.077731 59.5853992,130.173319 59.5875,130.271008 C59.5896008,130.304622 59.5906513,130.337185 59.5938025,130.367647 C59.6830882,131.821429 60.6841387,133.114496 62.172584,133.483193" id="Fill-42" fill="#C7CAE0"></path>
                        <path d="M62.2714286,122.831408 C64.3502101,114.439601 65.3796218,114.694853 65.3796218,114.694853 C65.3796218,114.694853 66.4090336,114.950105 64.3313025,123.340861 C62.252521,131.732668 61.2231092,131.477416 61.2231092,131.477416 C61.2231092,131.477416 60.1926471,131.222164 62.2714286,122.831408" id="Fill-44" fill="#AEB1C5"></path>
                        <path d="M72.3601891,122.856618 C72.2393908,122.856618 72.1238445,122.878676 72.0072479,122.892332 C71.9778361,122.809349 71.9568277,122.725315 71.9106092,122.644433 C71.5828782,122.076155 70.9641807,121.819853 70.5293067,122.070903 C70.0944328,122.321954 70.0082983,122.985819 70.334979,123.554097 C70.347584,123.575105 70.367542,123.588761 70.3801471,123.609769 C69.7404412,124.165441 69.3276261,124.975315 69.3276261,125.890231 C69.3276261,126.266282 69.4053571,126.622374 69.5303571,126.955357 C69.354937,127.058298 69.1889706,127.203256 69.0702731,127.408088 C68.7782563,127.914391 68.8559874,128.506828 69.2435924,128.730567 C69.6259454,128.952206 70.1658613,128.728466 70.4610294,128.23687 C70.9820378,128.659139 71.6375,128.922794 72.3601891,128.922794 C74.0356092,128.922794 75.3938025,127.564601 75.3938025,125.890231 C75.3938025,124.214811 74.0356092,122.856618 72.3601891,122.856618" id="Fill-46" fill="#AEB1C5"></path>
                        <path d="M73.4106092,126.132458 C73.4106092,126.478046 73.2362395,126.757458 73.0219538,126.757458 C72.8066176,126.757458 72.6322479,126.478046 72.6322479,126.132458 C72.6322479,125.78687 72.8066176,125.507458 73.0219538,125.507458 C73.2362395,125.507458 73.4106092,125.78687 73.4106092,126.132458" id="Fill-48" fill="#967AA2"></path>
                        <path d="M71.1815126,112.38834 C71.1815126,113.540651 72.1153361,114.474475 73.2665966,114.474475 C74.4189076,114.474475 75.3527311,113.540651 75.3527311,112.38834 C75.3527311,111.236029 74.4189076,110.303256 73.2665966,110.303256 C72.1153361,110.303256 71.1815126,111.236029 71.1815126,112.38834" id="Fill-50" fill="#463524"></path>
                        <mask id="mask-4" fill="white">
                            <use xlink:href="#path-3"></use>
                        </mask>
                        <g id="Clip-53"></g>
                        <polygon id="Fill-52" fill="#FEFEFE" mask="url(#mask-4)" points="164.886555 134.453782 200.60084 134.453782 200.60084 98.7394958 164.886555 98.7394958"></polygon>
                        <polygon id="Fill-54" fill="#C7CAE0" mask="url(#mask-4)" points="168.037815 131.302521 197.44958 131.302521 197.44958 126.05042 168.037815 126.05042"></polygon>
                        <path d="M168.03771,101.890756 L168.03771,115.836134 C168.03771,115.836134 170.38855,111.059874 174.274055,112.152311 C178.158508,113.245798 179.289811,117.782563 181.539811,117.012605 C183.791912,116.241597 185.692122,115.265756 189.671113,117.102941 C193.650105,118.941176 197.449475,118.684874 197.449475,118.684874 L197.449475,101.890756 L168.03771,101.890756 Z" id="Fill-55" fill="#C7CAE0" mask="url(#mask-4)"></path>
                        <path d="M190.096534,108.717962 C190.096534,109.588761 189.390651,110.293592 188.520903,110.293592 C187.651155,110.293592 186.946324,109.588761 186.946324,108.717962 C186.946324,107.848214 187.651155,107.142332 188.520903,107.142332 C189.390651,107.142332 190.096534,107.848214 190.096534,108.717962" id="Fill-56" fill="#FCE7B2" mask="url(#mask-4)"></path>
                        <path d="M184.210504,98.9595588 C184.088655,99.5267857 183.530882,99.8881303 182.963655,99.7662815 C182.395378,99.6444328 182.035084,99.0866597 182.156933,98.5194328 C182.278782,97.9522059 182.836555,97.5908613 183.403782,97.7127101 C183.971008,97.8345588 184.332353,98.3923319 184.210504,98.9595588" id="Fill-57" fill="#463524" mask="url(#mask-4)"></path>
                        <polygon id="Fill-58" fill="#FEFEFE" mask="url(#mask-4)" points="234.973214 170.58813 200.039391 178.01355 192.613971 143.079727 227.547794 135.654307"></polygon>
                        <path d="M211.107983,139.148845 C211.228782,139.716071 210.867437,140.273845 210.29916,140.394643 C209.730882,140.514391 209.17416,140.153046 209.053361,139.585819 C208.933613,139.017542 209.294958,138.459769 209.862185,138.338971 C210.429412,138.219223 210.988235,138.580567 211.107983,139.148845" id="Fill-59" fill="#463524" mask="url(#mask-4)"></path>
                        <polygon id="Fill-60" fill="#96204A" mask="url(#mask-4)" points="205.266071 167.237815 204.392122 163.127521 214.667332 160.943697 210.735609 142.44895 196.352206 145.506723 202.466702 174.27563 216.851155 171.218908 215.540231 165.052941"></polygon>
                        <polygon id="Fill-61" fill="#570023" mask="url(#mask-4)" points="210.735609 142.44937 212.483508 150.668908 220.703046 148.922059 222.88687 159.196218 214.667332 160.944118 204.392122 163.127941 205.266071 167.238235 215.540231 165.053361 216.851155 171.218277 231.235609 168.161555 225.120063 139.391597"></polygon>
                        <polygon id="Fill-62" fill="#6B0A31" mask="url(#mask-4)" points="222.88729 159.196639 214.667752 160.944538 212.483929 150.669328 220.703466 148.922479"></polygon>
                        <path d="M135.027416,53.394958 C140.564181,58.9327731 140.564181,67.9117647 135.027416,73.4495798 C129.489601,78.987395 120.510609,78.987395 114.972794,73.4495798 C109.434979,67.9117647 109.434979,58.9327731 114.972794,53.394958 C120.510609,47.8571429 129.489601,47.8571429 135.027416,53.394958" id="Fill-63" fill="#FCE7B2" mask="url(#mask-4)"></path>
                        <path d="M127.406723,62.9821429 C131.010714,64.1943277 132.671429,66.5861345 131.459244,70.1890756 C130.247059,73.7930672 126.288025,74.6155462 122.684034,73.4033613 C119.080042,72.1911765 117.196639,69.4033613 118.409874,65.7993697 C119.622059,62.1953782 123.802731,61.769958 127.406723,62.9821429" id="Fill-64" fill="#FEEBD5" mask="url(#mask-4)"></path>
                        <path d="M128.713655,59.7082983 C130.765126,61.7597689 130.765126,65.0853992 128.713655,67.1358193 C126.663235,69.1872899 123.337605,69.1872899 121.286134,67.1358193 C119.235714,65.0853992 119.235714,61.7597689 121.286134,59.7082983 C123.337605,57.6568277 126.663235,57.6568277 128.713655,59.7082983" id="Fill-65" fill="#6F9C5B" mask="url(#mask-4)"></path>
                        <path d="M127.970903,60.4509454 C129.61166,62.0917017 129.61166,64.752416 127.970903,66.3931723 C126.330147,68.0339286 123.669433,68.0339286 122.028676,66.3931723 C120.38792,64.752416 120.38792,62.0917017 122.028676,60.4509454 C123.669433,58.8101891 126.330147,58.8101891 127.970903,60.4509454" id="Fill-66" fill="#B28030" mask="url(#mask-4)"></path>
                        <polygon id="Fill-67" fill="#956C25" mask="url(#mask-4)" points="121.16271 62.4190126 123.310819 63.5345588 125.392752 62.2856092 123.073424 62.5566176 121.344433 61.8307773"></polygon>
                        <path d="M127.92584,61.662395 C128.834454,63.9764706 128.023529,65.1918067 127.133824,65.812605 C126.437395,66.3 125.692647,66.4218487 125.692647,66.4218487 L125.393277,63.5615546 L126.697899,65.0237395 L127.420588,63.5195378 L127.92584,61.662395 Z" id="Fill-68" fill="#956C25" mask="url(#mask-4)"></path>
                        <path d="M128.357668,54.3838235 C127.859769,53.9289916 126.704307,51.9027311 129.855567,52.5939076 C134.891282,53.6978992 136.011029,57.8113445 136.092962,57.9962185 C136.423845,58.7357143 134.849265,61.0991597 133.8125,58.8701681 C131.854517,54.6611345 129.257878,55.2084034 128.357668,54.3838235" id="Fill-69" fill="#FEFEFE" mask="url(#mask-4)"></path>
                        <path d="M123.939496,54.307458 C123.939496,54.307458 122.946849,52.8631303 124.503571,52.4639706 C126.061345,52.0648109 125.834454,53.6015756 125.437395,53.7853992 C125.041387,53.9692227 124.876471,54.8914916 123.939496,54.307458" id="Fill-70" fill="#FEFEFE" mask="url(#mask-4)"></path>
                        <path d="M135.027416,93.5037815 C140.564181,99.0415966 140.564181,108.020588 135.027416,113.558403 C129.489601,119.096218 120.510609,119.096218 114.972794,113.558403 C109.434979,108.020588 109.434979,99.0415966 114.972794,93.5037815 C120.510609,87.9659664 129.489601,87.9659664 135.027416,93.5037815" id="Fill-71" fill="#1A2F56" mask="url(#mask-4)"></path>
                        <path d="M129.647059,104.103887 C133.301471,105.008298 135.142857,107.274055 134.259454,111.014601 C133.375,114.755147 129.544118,115.932668 125.889706,115.027206 C122.235294,114.122794 120.139706,111.476786 121.02521,107.736239 C121.909664,103.995693 125.992647,103.198424 129.647059,104.103887" id="Fill-72" fill="#0F2347" mask="url(#mask-4)"></path>
                        <path d="M128.713655,99.8176471 C130.765126,101.869118 130.765126,105.193697 128.713655,107.245168 C126.663235,109.295588 123.337605,109.295588 121.286134,107.245168 C119.235714,105.193697 119.235714,101.869118 121.286134,99.8176471 C123.337605,97.7661765 126.663235,97.7661765 128.713655,99.8176471" id="Fill-73" fill="#6B0A31" mask="url(#mask-4)"></path>
                        <path d="M127.970903,100.560294 C129.61166,102.20105 129.61166,104.861765 127.970903,106.502521 C126.330147,108.143277 123.669433,108.143277 122.028676,106.502521 C120.38792,104.861765 120.38792,102.20105 122.028676,100.560294 C123.669433,98.9195378 126.330147,98.9195378 127.970903,100.560294" id="Fill-74" fill="#935523" mask="url(#mask-4)"></path>
                        <polygon id="Fill-75" fill="#7C471A" mask="url(#mask-4)" points="121.16271 102.528256 123.310819 103.643803 125.392752 102.394853 123.073424 102.665861 121.344433 101.940021"></polygon>
                        <path d="M127.92584,101.771218 C128.834454,104.085294 128.023529,105.30063 127.133824,105.921429 C126.437395,106.408824 125.692647,106.530672 125.692647,106.530672 L125.393277,103.670378 L126.697899,105.132563 L127.420588,103.628361 L127.92584,101.771218 Z" id="Fill-76" fill="#7C471A" mask="url(#mask-4)"></path>
                        <path d="M128.357668,94.4906513 C127.859769,94.0347689 126.704307,92.0064076 129.855567,92.697584 C134.891282,93.8036765 136.011029,97.9223739 136.092962,98.1082983 C136.423845,98.8477941 134.849265,101.214391 133.8125,98.9832983 C131.854517,94.7690126 129.257878,95.3162815 128.357668,94.4906513" id="Fill-77" fill="#233A65" mask="url(#mask-4)"></path>
                        <path d="M133.493803,103.65105 C133.493803,103.65105 132.501155,102.206723 134.056828,101.807563 C135.614601,101.408403 135.38771,102.944118 134.991702,103.127941 C134.595693,103.312815 134.430777,104.235084 133.493803,103.65105" id="Fill-78" fill="#233A65" mask="url(#mask-4)"></path>
                        <path d="M155.081828,73.4493697 C160.619643,78.9871849 160.619643,87.9661765 155.081828,93.5039916 C149.544013,99.0418067 140.565021,99.0418067 135.027206,93.5039916 C129.489391,87.9661765 129.489391,78.9871849 135.027206,73.4493697 C140.565021,67.9115546 149.544013,67.9115546 155.081828,73.4493697" id="Fill-79" fill="#6B0A31" mask="url(#mask-4)"></path>
                        <path d="M142.869643,84.2731092 C146.558718,83.4170168 149.225735,84.5336134 150.104937,88.1302521 C150.983088,91.7268908 148.068172,94.4464286 144.380147,95.302521 C140.693172,96.1596639 137.628046,94.8298319 136.749895,91.2321429 C135.870693,87.6355042 139.181618,85.1302521 142.869643,84.2731092" id="Fill-80" fill="#570023" mask="url(#mask-4)"></path>
                        <path d="M148.768067,79.7627101 C150.819538,81.8141807 150.819538,85.1398109 148.768067,87.1902311 C146.717647,89.2417017 143.392017,89.2417017 141.340546,87.1902311 C139.290126,85.1398109 139.290126,81.8141807 141.340546,79.7627101 C143.392017,77.7112395 146.717647,77.7112395 148.768067,79.7627101" id="Fill-81" fill="#0F2347" mask="url(#mask-4)"></path>
                        <path d="M148.025315,80.5058824 C149.666071,82.1466387 149.666071,84.8073529 148.025315,86.4481092 C146.384559,88.0888655 143.723845,88.0888655 142.084139,86.4481092 C140.442332,84.8073529 140.442332,82.1466387 142.084139,80.5058824 C143.723845,78.8651261 146.384559,78.8651261 148.025315,80.5058824" id="Fill-82" fill="#935523" mask="url(#mask-4)"></path>
                        <path d="M146.282458,85.9021008 C143.797164,85.919958 142.953676,84.7256303 142.693172,83.6731092 C142.489391,82.8485294 142.641702,82.110084 142.641702,82.110084 L145.420063,82.8569328 L143.58708,83.5502101 L144.730987,84.7634454 L146.282458,85.9021008 Z" id="Fill-83" fill="#7C471A" mask="url(#mask-4)"></path>
                        <path d="M144.019538,73.9043067 C143.419748,73.6290966 141.728571,72.1028361 144.869328,71.8328782 C149.887185,71.4011555 152.17605,74.8528361 152.309454,74.9988445 C152.839916,75.5828782 152.093067,78.2015756 150.453361,76.4557773 C147.355672,73.1564076 145.106723,74.4022059 144.019538,73.9043067" id="Fill-84" fill="#96204A" mask="url(#mask-4)"></path>
                        <path d="M153.548214,79.8335084 C153.548214,79.8335084 152.555567,78.3891807 154.11229,77.990021 C155.669013,77.5908613 155.443172,79.1276261 155.046113,79.3114496 C154.650105,79.4952731 154.485189,80.417542 153.548214,79.8335084" id="Fill-85" fill="#96204A" mask="url(#mask-4)"></path>
                        <path d="M114.973004,73.4493697 C120.509769,78.9871849 120.509769,87.9661765 114.973004,93.5039916 C109.435189,99.0418067 100.456197,99.0418067 94.9183824,93.5039916 C89.3805672,87.9661765 89.3805672,78.9871849 94.9183824,73.4493697 C100.456197,67.9115546 109.435189,67.9115546 114.973004,73.4493697" id="Fill-86" fill="#1A2F56" mask="url(#mask-4)"></path>
                        <path d="M106.97584,83.1771008 C110.637605,84.0489496 112.50105,86.2989496 111.65021,90.05 C110.80042,93.8031513 106.980042,95.0184874 103.317227,94.1466387 C99.6533613,93.2758403 97.5357143,90.6476891 98.3855042,86.8955882 C99.2363445,83.142437 103.313025,82.3052521 106.97584,83.1771008" id="Fill-87" fill="#0F2347" mask="url(#mask-4)"></path>
                        <path d="M108.659244,79.7627101 C110.710714,81.8141807 110.710714,85.1398109 108.659244,87.1902311 C106.608824,89.2417017 103.283193,89.2417017 101.231723,87.1902311 C99.1813025,85.1398109 99.1813025,81.8141807 101.231723,79.7627101 C103.283193,77.7112395 106.608824,77.7112395 108.659244,79.7627101" id="Fill-88" fill="#6B0A31" mask="url(#mask-4)"></path>
                        <path d="M107.916492,80.5058824 C109.557248,82.1466387 109.557248,84.8073529 107.916492,86.4481092 C106.275735,88.0888655 103.615021,88.0888655 101.974265,86.4481092 C100.333508,84.8073529 100.333508,82.1466387 101.974265,80.5058824 C103.615021,78.8651261 106.275735,78.8651261 107.916492,80.5058824" id="Fill-89" fill="#935523" mask="url(#mask-4)"></path>
                        <polygon id="Fill-90" fill="#7C471A" mask="url(#mask-4)" points="105.634139 79.620063 104.518592 81.7692227 105.767542 83.850105 105.496534 81.5307773 106.222374 79.8017857"></polygon>
                        <path d="M106.89895,86.3991597 C104.584874,87.3077731 103.369538,86.4957983 102.747689,85.6071429 C102.261345,84.9107143 102.139496,84.1670168 102.139496,84.1670168 L104.99979,83.8655462 L103.537605,85.1712185 L105.041807,85.8928571 L106.89895,86.3991597 Z" id="Fill-91" fill="#7C471A" mask="url(#mask-4)"></path>
                        <path d="M108.302206,74.4362395 C107.805357,73.9803571 106.648845,71.9519958 109.801155,72.6431723 C114.83687,73.7492647 115.955567,77.8679622 116.03855,78.0538866 C116.369433,78.7933824 114.794853,81.159979 113.758088,78.9288866 C111.800105,74.7146008 109.203466,75.2618697 108.302206,74.4362395" id="Fill-92" fill="#233A65" mask="url(#mask-4)"></path>
                        <path d="M113.439391,83.5966387 C113.439391,83.5966387 112.445693,82.1523109 114.002416,81.7531513 C115.560189,81.3529412 115.333298,82.8897059 114.93729,83.0735294 C114.541282,83.2584034 114.376366,84.1806723 113.439391,83.5966387" id="Fill-93" fill="#233A65" mask="url(#mask-4)"></path>
                    </g>
                </g>
            </g>
        </g>
    </g>
</svg>